<svg xmlns="http://www.w3.org/2000/svg" xmlns:xlink="http://www.w3.org/1999/xlink" width="102" height="102" viewBox="0 0 102 102"><defs><filter id="a" x="0" y="0" width="102" height="102" filterUnits="userSpaceOnUse"><feOffset dy="3" input="SourceAlpha"/><feGaussianBlur stdDeviation="3" result="b"/><feFlood flood-opacity="0.161"/><feComposite operator="in" in2="b"/><feComposite in="SourceGraphic"/></filter></defs><g transform="translate(-800 -2577.986)"><g transform="translate(809 2583.986)"><g transform="matrix(1, 0, 0, 1, -9, -6)" filter="url(#a)"><circle cx="42" cy="42" r="42" transform="translate(9 6)" fill="#e3f1fa"/></g></g><g transform="translate(828.479 2603.94)"><g transform="translate(2)"><path d="M42.36,0h-4.1a.684.684,0,0,0-.684.684V10.945H7.473V.684A.684.684,0,0,0,6.788,0h-4.1A.684.684,0,0,0,2,.684V36.256a.684.684,0,1,0,1.368,0V1.368H6.1V42.412H3.368v-3.42a.684.684,0,0,0-1.368,0v4.1a.684.684,0,0,0,.684.684h4.1a.684.684,0,0,0,.684-.684v-3.42h30.1V43.1a.684.684,0,0,0,.684.684h4.1a.684.684,0,0,0,.684-.684V.684A.684.684,0,0,0,42.36,0ZM7.473,28.047H9.525a.684.684,0,0,0,0-1.368H7.473V25.311h30.1v1.368H12.261a.684.684,0,0,0,0,1.368H37.572v7.525H7.473Zm30.1-15.734v1.368H31.415a.684.684,0,0,0,0,1.368h6.157v8.893H7.473V15.05H28.679a.684.684,0,1,0,0-1.368H7.473V12.313ZM7.473,38.308V36.94h30.1v1.368Zm34.2,4.1H38.94V1.368h2.736Z" transform="translate(-2)" fill="#7d8c48"/><path d="M12.684,10.841a.684.684,0,0,0,.684-.684V8.266a1.779,1.779,0,0,1,.99-1.6.684.684,0,0,0,.378-.616V5.368h2.736v.684a.684.684,0,0,0,.378.612,1.779,1.779,0,0,1,.99,1.6v1.891a.684.684,0,0,0,1.368,0V8.266a3.14,3.14,0,0,0-1.368-2.6V4.684A.684.684,0,0,0,18.157,4h-4.1a.684.684,0,0,0-.684.684v.979A3.14,3.14,0,0,0,12,8.266v1.891A.684.684,0,0,0,12.684,10.841Z" transform="translate(-5.159 -1.264)" fill="#7d8c48"/><path d="M26.684,10.841a.684.684,0,0,0,.684-.684V8.266a1.779,1.779,0,0,1,.99-1.6.684.684,0,0,0,.378-.616V5.368h2.736v.684a.684.684,0,0,0,.378.612,1.779,1.779,0,0,1,.99,1.6v1.891a.684.684,0,1,0,1.368,0V8.266a3.14,3.14,0,0,0-1.368-2.6V4.684A.684.684,0,0,0,32.157,4h-4.1a.684.684,0,0,0-.684.684v.979A3.14,3.14,0,0,0,26,8.266v1.891A.684.684,0,0,0,26.684,10.841Z" transform="translate(-9.582 -1.264)" fill="#7d8c48"/><path d="M40.684,10.841a.684.684,0,0,0,.684-.684V8.266a1.779,1.779,0,0,1,.99-1.6.684.684,0,0,0,.378-.616V5.368h2.736v.684a.684.684,0,0,0,.378.612,1.779,1.779,0,0,1,.99,1.6v1.891a.684.684,0,1,0,1.368,0V8.266a3.14,3.14,0,0,0-1.368-2.6V4.684A.684.684,0,0,0,46.157,4h-4.1a.684.684,0,0,0-.684.684v.979A3.14,3.14,0,0,0,40,8.266v1.891A.684.684,0,0,0,40.684,10.841Z" transform="translate(-14.005 -1.264)" fill="#7d8c48"/><path d="M17.788,25.684A.684.684,0,0,0,17.1,25H14.368a.684.684,0,0,0-.684.684v1.773a2.725,2.725,0,0,0-.684,1.8v.532a.684.684,0,0,0,1.368,0v-.532a1.349,1.349,0,0,1,.458-1.012.684.684,0,0,0,.226-.508V26.368H16.42v1.368a.684.684,0,0,0,.226.508,1.349,1.349,0,0,1,.458,1.012v.532a.684.684,0,0,0,1.368,0v-.532a2.725,2.725,0,0,0-.684-1.8Z" transform="translate(-5.475 -7.898)" fill="#7d8c48"/><path d="M27.788,25.684A.684.684,0,0,0,27.1,25H24.368a.684.684,0,0,0-.684.684v1.773a2.725,2.725,0,0,0-.684,1.8v.532a.684.684,0,0,0,1.368,0v-.532a1.349,1.349,0,0,1,.458-1.012.684.684,0,0,0,.226-.508V26.368H26.42v1.368a.684.684,0,0,0,.226.508,1.349,1.349,0,0,1,.458,1.012v.532a.684.684,0,0,0,1.368,0v-.532a2.725,2.725,0,0,0-.684-1.8Z" transform="translate(-8.635 -7.898)" fill="#7d8c48"/><path d="M37.788,25.684A.684.684,0,0,0,37.1,25H34.368a.684.684,0,0,0-.684.684v1.773a2.725,2.725,0,0,0-.684,1.8v.532a.684.684,0,0,0,1.368,0v-.532a1.349,1.349,0,0,1,.458-1.012.684.684,0,0,0,.226-.508V26.368H36.42v1.368a.684.684,0,0,0,.226.508,1.349,1.349,0,0,1,.458,1.012v.532a.684.684,0,1,0,1.368,0v-.532a2.725,2.725,0,0,0-.684-1.8Z" transform="translate(-11.794 -7.898)" fill="#7d8c48"/><path d="M43.684,30.473a.684.684,0,0,0,.684-.684v-.532a1.349,1.349,0,0,1,.458-1.012.684.684,0,0,0,.226-.508V26.368H46.42v1.368a.684.684,0,0,0,.226.508,1.349,1.349,0,0,1,.458,1.012v.532a.684.684,0,0,0,1.368,0v-.532a2.725,2.725,0,0,0-.684-1.8V25.684A.684.684,0,0,0,47.1,25H44.368a.684.684,0,0,0-.684.684v1.773a2.725,2.725,0,0,0-.684,1.8v.532A.684.684,0,0,0,43.684,30.473Z" transform="translate(-14.953 -7.898)" fill="#7d8c48"/><path d="M18.157,44H12.684a.684.684,0,0,0-.684.684V47.42a.684.684,0,0,0,1.368,0V45.368h4.1V47.42a.684.684,0,0,0,1.368,0V44.684A.684.684,0,0,0,18.157,44Z" transform="translate(-5.159 -13.901)" fill="#7d8c48"/><path d="M30.157,44H24.684a.684.684,0,0,0-.684.684V47.42a.684.684,0,0,0,1.368,0V45.368h4.1V47.42a.684.684,0,0,0,1.368,0V44.684A.684.684,0,0,0,30.157,44Z" transform="translate(-8.95 -13.901)" fill="#7d8c48"/><path d="M46.261,44H36.684a.684.684,0,0,0-.684.684V47.42a.684.684,0,0,0,1.368,0V45.368h8.209V47.42a.684.684,0,0,0,1.368,0V44.684A.684.684,0,0,0,46.261,44Z" transform="translate(-12.742 -13.901)" fill="#7d8c48"/></g></g></g></svg>