<svg xmlns="http://www.w3.org/2000/svg" xmlns:xlink="http://www.w3.org/1999/xlink" width="102" height="102" viewBox="0 0 102 102"><defs><filter id="a" x="0" y="0" width="102" height="102" filterUnits="userSpaceOnUse"><feOffset dy="3" input="SourceAlpha"/><feGaussianBlur stdDeviation="3" result="b"/><feFlood flood-opacity="0.161"/><feComposite operator="in" in2="b"/><feComposite in="SourceGraphic"/></filter></defs><g transform="translate(-1110.027 -2577.986)"><g transform="translate(1119.027 2583.986)"><g transform="matrix(1, 0, 0, 1, -9, -6)" filter="url(#a)"><circle cx="42" cy="42" r="42" transform="translate(9 6)" fill="#e3f1fa"/></g></g><g transform="translate(1109.865 2604.329)"><g transform="translate(32.065)"><path d="M68.938,0H33.388a1.325,1.325,0,0,0-1.323,1.323V2.691a1.324,1.324,0,0,0,.684,1.158V41.659a2.009,2.009,0,0,0,2.007,2.007H67.571a2.009,2.009,0,0,0,2.007-2.007V3.848a1.324,1.324,0,0,0,.684-1.158V1.323A1.325,1.325,0,0,0,68.938,0ZM68.3,18.885l-3.772,5.029c-4.959-.264-9.27-2.822-13.441-5.3-3.367-2-6.548-3.886-10.04-4.658a.64.64,0,1,0-.276,1.249c3.292.727,6.386,2.564,9.663,4.509,4.4,2.613,8.955,5.315,14.383,5.49h.021a.64.64,0,0,0,.512-.256L68.3,21.017V41.659a.729.729,0,0,1-.728.728H34.756a.728.728,0,0,1-.728-.728V15.526a12.234,12.234,0,0,1,4.133-.637.64.64,0,1,0,.025-1.279,13.4,13.4,0,0,0-4.158.575v-1.4c6.088-1.14,10.986.492,16.164,2.217,4.4,1.468,8.925,2.975,14.5,2.975a31.749,31.749,0,0,0,3.608-.209ZM38.13,11.124V7.476a.729.729,0,0,1,.728-.728h9.571a.728.728,0,0,1,.728.728v4.1a.728.728,0,0,1-.728.728H45.877A28.633,28.633,0,0,0,38.13,11.124ZM68.982,2.691a.044.044,0,0,1-.044.044H66.887a.64.64,0,0,0,0,1.279H68.3V16.483c-7.1.842-12.487-.953-17.7-2.692q-.636-.212-1.267-.421a2.009,2.009,0,0,0,1.106-1.793v-4.1a2.009,2.009,0,0,0-2.007-2.007H38.857a2.009,2.009,0,0,0-2.007,2.007v3.682a23.446,23.446,0,0,0-2.823.33V4.014H64.153a.64.64,0,1,0,0-1.279H33.388a.044.044,0,0,1-.044-.044V1.323h0a.044.044,0,0,1,.044-.044h35.55a.044.044,0,0,1,.044.044Z" transform="translate(-32.065)" fill="#7d8c48"/></g><g transform="translate(51.891 5.469)"><path d="M276.11,64.129h-9.571a2.009,2.009,0,0,0-2.007,2.007v4.1a2.009,2.009,0,0,0,2.007,2.007h9.571a2.009,2.009,0,0,0,2.007-2.007v-4.1A2.009,2.009,0,0,0,276.11,64.129Zm.728,6.109a.729.729,0,0,1-.728.728h-9.571a.728.728,0,0,1-.728-.728v-4.1a.729.729,0,0,1,.728-.728h9.571a.729.729,0,0,1,.728.728Z" transform="translate(-264.532 -64.129)" fill="#7d8c48"/></g></g></g></svg>