<svg xmlns="http://www.w3.org/2000/svg" xmlns:xlink="http://www.w3.org/1999/xlink" width="102" height="102" viewBox="0 0 102 102"><defs><filter id="a" x="0" y="0" width="102" height="102" filterUnits="userSpaceOnUse"><feOffset dy="3" input="SourceAlpha"/><feGaussianBlur stdDeviation="3" result="b"/><feFlood flood-opacity="0.161"/><feComposite operator="in" in2="b"/><feComposite in="SourceGraphic"/></filter></defs><g transform="translate(-1110.028 -2292.226)"><g transform="translate(1119.028 2298.226)"><g transform="matrix(1, 0, 0, 1, -9, -6)" filter="url(#a)"><circle cx="42" cy="42" r="42" transform="translate(9 6)" fill="#e3f1fa"/></g></g><g transform="translate(1135.119 2314.407)"><path d="M47.242,10.06,48.4,9.291v4.9a.8.8,0,0,0,1.6,0V7.8a.8.8,0,0,0-1.242-.664l-2.4,1.6a.8.8,0,1,0,.887,1.329Z" transform="translate(-8.876 -1.007)" fill="#7d8c48"/><path d="M46.94,14.443A7.979,7.979,0,0,0,40.359,2h-.04A7.932,7.932,0,0,0,35.2,3.869,23.641,23.641,0,0,0,25.943,2a23.994,23.994,0,1,0,21,12.443ZM40.319,3.6h.032a6.389,6.389,0,0,1-.032,12.779h-.032A6.389,6.389,0,0,1,40.319,3.6Zm-.04,14.376h.04a7.444,7.444,0,0,0,1.206-.1,17.561,17.561,0,1,1-15.582-9.48,17.243,17.243,0,0,1,6.405,1.23c0,.112-.016.216-.016.327A8,8,0,0,0,40.279,17.973ZM25.943,48.323a22.363,22.363,0,1,1,0-44.725,22.117,22.117,0,0,1,8.067,1.509A8.067,8.067,0,0,0,32.6,7.982a18.9,18.9,0,0,0-6.653-1.19,19.194,19.194,0,1,0,17.171,10.67,8.062,8.062,0,0,0,2.723-1.709,22.359,22.359,0,0,1-19.895,32.57Z" transform="translate(0 0)" fill="#7d8c48"/><path d="M38.805,31.3a1.888,1.888,0,0,1-.839-1.573V24.779A8.723,8.723,0,0,0,35.4,18.566a8.879,8.879,0,0,0-3.3-2.061,3.195,3.195,0,1,0-6.11-1.31,3.322,3.322,0,0,0,.28,1.31,9.045,9.045,0,0,0-5.87,8.522v4.7a1.888,1.888,0,0,1-.839,1.573A3.477,3.477,0,0,0,18,34.2v3.354a.8.8,0,0,0,.8.8h5.663a4.786,4.786,0,0,0,9.44,0h5.663a.8.8,0,0,0,.8-.8V34.2a3.477,3.477,0,0,0-1.557-2.9ZM29.181,13.6a1.6,1.6,0,0,1,1.6,1.6,1.628,1.628,0,0,1-.28.9,8.815,8.815,0,0,0-1.949-.08c-.232.016-.455.048-.687.08a1.628,1.628,0,0,1-.28-.9A1.6,1.6,0,0,1,29.181,13.6Zm0,27.155a3.2,3.2,0,0,1-3.083-2.4h6.166A3.2,3.2,0,0,1,29.181,40.753Zm9.584-3.993H19.6V34.2a1.888,1.888,0,0,1,.839-1.573,3.477,3.477,0,0,0,1.557-2.9v-4.7a7.348,7.348,0,0,1,6.669-7.42,7.2,7.2,0,0,1,7.707,7.172v4.952a3.477,3.477,0,0,0,1.557,2.9,1.888,1.888,0,0,1,.839,1.573Z" transform="translate(-3.239 -2.014)" fill="#7d8c48"/></g></g></svg>