<svg xmlns="http://www.w3.org/2000/svg" width="87.351" height="87.351" viewBox="0 0 87.351 87.351"><g transform="translate(-289 -1437.877)"><circle cx="43.675" cy="43.675" r="43.675" transform="translate(289 1437.877)" fill="#ffe6d2"/><g transform="translate(301.282 1450.167)"><path d="M40.7,32.535l-6.515,8.571a4.445,4.445,0,0,0,0,5.362L40.7,55.04a4.429,4.429,0,0,0,7.055,0l6.515-8.571a4.445,4.445,0,0,0,0-5.362l-6.515-8.571a4.436,4.436,0,0,0-1.282-1.142,4.487,4.487,0,0,0,2.175-4.6C52.111,20.675,50.9,6,44.829,6c-5.658,0-7.053,12.6-4.513,19.287A4.49,4.49,0,0,0,41.968,31.4,4.426,4.426,0,0,0,40.7,32.535Zm2.917,22.977a3.179,3.179,0,0,1-1.947-1.21l-6.515-8.571a3.2,3.2,0,0,1-.6-1.379h4.927a1.938,1.938,0,0,0,.313.618l2.88,3.789a1.947,1.947,0,0,0,.945.674v6.081Zm.025-7.493-2.88-3.789a.734.734,0,0,1,0-.888l2.88-3.789a.733.733,0,0,1,1.168,0l2.88,3.789a.734.734,0,0,1,0,.888l-2.88,3.789A.733.733,0,0,1,43.64,48.02ZM53.3,45.731,46.781,54.3a3.181,3.181,0,0,1-1.947,1.21V49.431a1.936,1.936,0,0,0,.945-.674l2.88-3.789a1.929,1.929,0,0,0,.3-.572h4.931A3.189,3.189,0,0,1,53.3,45.73ZM46.781,33.272,53.3,41.843a3.189,3.189,0,0,1,.592,1.334H48.958a1.929,1.929,0,0,0-.3-.572l-2.88-3.789a1.947,1.947,0,0,0-.945-.674V32.061a3.179,3.179,0,0,1,1.947,1.21ZM48.194,10.6a22.54,22.54,0,0,1-.13,14.613,4.553,4.553,0,0,0-.913-1.086c1.586-4.5,1.11-11.321-.739-14.4A6.22,6.22,0,0,1,48.194,10.6Zm-2.1,12.845a4.466,4.466,0,0,0-2.639-.349,19.541,19.541,0,0,1-.684-5.353c0-4.464,1.192-7.35,2.057-8.018.135.08.538.412,1.044,1.693A20.516,20.516,0,0,1,46.095,23.44ZM44.829,7.219a3.007,3.007,0,0,1,2.4,1.5A3.57,3.57,0,0,0,44.156,8.7c-1.533,1.09-2.6,4.807-2.6,9.039a18.08,18.08,0,0,0,1.417,7.494c.306.616,1.019,1.8,1.877,1.783a.809.809,0,0,1-.278,1.228A3.416,3.416,0,0,1,42.2,26.413C38.816,20.9,40.162,7.22,44.829,7.22ZM41.021,26.808a4.607,4.607,0,0,0,3.608,2.661.61.61,0,0,0,.227-.03,2.028,2.028,0,0,0,.517-3.588.616.616,0,0,0-.527-.082,3.987,3.987,0,0,1-.976-1.5,3.27,3.27,0,1,1-2.848,2.544Zm2.594,5.255v6.081a1.936,1.936,0,0,0-.945.674l-2.88,3.789a1.93,1.93,0,0,0-.283.526H34.569a3.18,3.18,0,0,1,.583-1.288l6.515-8.571a3.181,3.181,0,0,1,1.947-1.21Z" transform="translate(-24.512 -0.009)" fill="#7d8c48"/><path d="M270.7,32.526,264.182,41.1a4.445,4.445,0,0,0,0,5.362l6.515,8.571a4.429,4.429,0,0,0,7.055,0l6.515-8.571a4.445,4.445,0,0,0,0-5.362l-6.515-8.571a4.436,4.436,0,0,0-1.282-1.142,4.487,4.487,0,0,0,2.175-4.6c3.467-6.12,2.259-20.8-3.815-20.8-5.658,0-7.053,12.6-4.513,19.287a4.49,4.49,0,0,0,1.653,6.113,4.426,4.426,0,0,0-1.271,1.135ZM273.615,55.5a3.179,3.179,0,0,1-1.947-1.21l-6.515-8.571a3.189,3.189,0,0,1-.592-1.334h4.931a1.929,1.929,0,0,0,.3.572l2.88,3.789a1.947,1.947,0,0,0,.945.674V55.5Zm.025-7.493-2.88-3.789a.734.734,0,0,1,0-.888l2.88-3.789a.733.733,0,0,1,1.168,0l2.88,3.789a.734.734,0,0,1,0,.888l-2.88,3.789A.733.733,0,0,1,273.64,48.011Zm9.656-2.289-6.515,8.571a3.181,3.181,0,0,1-1.947,1.21V49.423a1.936,1.936,0,0,0,.945-.674l2.88-3.789a1.959,1.959,0,0,0,.313-.618H283.9a3.19,3.19,0,0,1-.6,1.379Zm-6.515-12.459,6.515,8.571a3.193,3.193,0,0,1,.583,1.288h-4.938a1.955,1.955,0,0,0-.282-.526l-2.88-3.789a1.947,1.947,0,0,0-.945-.674V32.052a3.179,3.179,0,0,1,1.947,1.21Zm1.413-22.677a22.541,22.541,0,0,1-.13,14.613,4.553,4.553,0,0,0-.913-1.086c1.589-4.508,1.108-11.323-.74-14.4a6.236,6.236,0,0,1,1.784.875Zm-2.1,12.845a4.466,4.466,0,0,0-2.639-.349,19.541,19.541,0,0,1-.684-5.353c0-4.464,1.192-7.35,2.057-8.018.135.08.538.412,1.044,1.693A20.516,20.516,0,0,1,276.095,23.431ZM274.829,7.21a3.007,3.007,0,0,1,2.4,1.5,3.567,3.567,0,0,0-3.073-.015c-1.533,1.09-2.6,4.807-2.6,9.039a18.08,18.08,0,0,0,1.417,7.494c.306.616,1.019,1.8,1.877,1.783a.809.809,0,0,1-.278,1.228A3.415,3.415,0,0,1,272.2,26.4c-3.386-5.516-2.04-19.194,2.627-19.194ZM271.021,26.8a4.6,4.6,0,0,0,3.608,2.661.61.61,0,0,0,.227-.03,2.028,2.028,0,0,0,.517-3.588.616.616,0,0,0-.527-.082,4,4,0,0,1-.976-1.5,3.27,3.27,0,1,1-2.848,2.544Zm2.594,5.255v6.081a1.936,1.936,0,0,0-.945.674L269.79,42.6a1.929,1.929,0,0,0-.3.572H264.56a3.189,3.189,0,0,1,.592-1.334l6.515-8.571a3.182,3.182,0,0,1,1.947-1.21Z" transform="translate(-231.149)" fill="#7d8c48"/><path d="M6.6,203.451a5.4,5.4,0,0,1,1.763,2.238,1.525,1.525,0,0,0,2.781,0,5.391,5.391,0,0,1,1.763-2.237,1.525,1.525,0,0,0,0-2.432,5.4,5.4,0,0,1-1.763-2.238,1.525,1.525,0,0,0-2.781,0A5.389,5.389,0,0,1,6.6,201.019a1.525,1.525,0,0,0,0,2.432Zm.737-1.461a6.606,6.606,0,0,0,2.135-2.7.306.306,0,0,1,.562,0,6.606,6.606,0,0,0,2.135,2.7.307.307,0,0,1,0,.491,6.606,6.606,0,0,0-2.135,2.7.306.306,0,0,1-.562,0,6.606,6.606,0,0,0-2.135-2.7A.307.307,0,0,1,7.341,201.99Z" transform="translate(0 -172.401)" fill="#7d8c48"/><path d="M437.138,177.689a5.391,5.391,0,0,1,1.763-2.237,1.525,1.525,0,0,0,0-2.432,5.4,5.4,0,0,1-1.763-2.238,1.525,1.525,0,0,0-2.781,0,5.389,5.389,0,0,1-1.763,2.237,1.525,1.525,0,0,0,0,2.432,5.4,5.4,0,0,1,1.763,2.238A1.525,1.525,0,0,0,437.138,177.689Zm-1.672-.5a6.606,6.606,0,0,0-2.135-2.7.307.307,0,0,1,0-.491,6.606,6.606,0,0,0,2.135-2.7.306.306,0,0,1,.562,0,6.606,6.606,0,0,0,2.135,2.7.307.307,0,0,1,0,.491,6.606,6.606,0,0,0-2.135,2.7A.306.306,0,0,1,435.466,177.184Z" transform="translate(-382.718 -147.245)" fill="#7d8c48"/></g></g></svg>