<svg xmlns="http://www.w3.org/2000/svg" xmlns:xlink="http://www.w3.org/1999/xlink" width="102" height="102" viewBox="0 0 102 102"><defs><filter id="a" x="0" y="0" width="102" height="102" filterUnits="userSpaceOnUse"><feOffset dy="3" input="SourceAlpha"/><feGaussianBlur stdDeviation="3" result="b"/><feFlood flood-opacity="0.161"/><feComposite operator="in" in2="b"/><feComposite in="SourceGraphic"/></filter></defs><g transform="translate(-178.023 -5015)"><g transform="translate(187.023 5021)"><g transform="matrix(1, 0, 0, 1, -9, -6)" filter="url(#a)"><circle cx="42" cy="42" r="42" transform="translate(9 6)" fill="#fff"/></g></g><g transform="translate(207 5041.977)"><g transform="translate(37.901 3.644)"><path d="M421.826,46.534a.74.74,0,0,0-.041-.231L419.6,40.472a.73.73,0,0,0-1.366,0L416.046,46.3a.72.72,0,0,0-.041.231c0,.009-.005.017-.005.026V74.81a2.915,2.915,0,0,0,5.831,0V46.56C421.831,46.551,421.826,46.543,421.826,46.534Zm-2.91-3.73,1.135,3.026h-2.27Zm1.458,32a1.458,1.458,0,0,1-2.916,0V72.8h2.916Zm0-3.468h-2.916V47.289h2.916Z" transform="translate(-416 -40)" fill="#7d8c48"/></g><path d="M35.715,0H.729A.729.729,0,0,0,0,.729V35.715c0,.016.008.03.009.046a.689.689,0,0,0,.037.187.6.6,0,0,0,.025.069.727.727,0,0,0,.143.214L7.5,43.52a.728.728,0,0,0,.515.213h27.7A.729.729,0,0,0,36.444,43V.729A.729.729,0,0,0,35.715,0ZM7.289,41.244l-4.8-4.8h4.8Zm27.7,1.031H8.746v-6.56a.729.729,0,0,0-.729-.729H1.458V1.458H34.986Z" fill="#7d8c48"/><g transform="translate(2.915 2.915)"><path d="M53.137,39.289h8.746a.729.729,0,0,0,.729-.729V32.729A.729.729,0,0,0,61.884,32H53.137a.729.729,0,0,0-.729.729v2.187H48.764a.729.729,0,0,0-.729.729v8.746H45.12V42.2a.729.729,0,0,0-.729-.729H32.729A.729.729,0,0,0,32,42.2V59.7a.729.729,0,0,0,.729.729H44.391a.729.729,0,0,0,.729-.729V57.511h2.915v8.746a.729.729,0,0,0,.729.729h3.644v2.187a.729.729,0,0,0,.729.729h8.746a.729.729,0,0,0,.729-.729V63.342a.729.729,0,0,0-.729-.729H53.137a.729.729,0,0,0-.729.729v2.187H49.493V51.68h2.915v2.187a.729.729,0,0,0,.729.729h8.746a.729.729,0,0,0,.729-.729V48.035a.729.729,0,0,0-.729-.729H53.137a.729.729,0,0,0-.729.729v2.187H49.493V36.373h2.915V38.56A.729.729,0,0,0,53.137,39.289Zm.729-5.831h7.289v4.373H53.866Zm-10.2,25.511h-10.2V54.6h10.2Zm0-5.831h-10.2V48.764h10.2Zm0-5.831h-10.2V42.933h10.2Zm4.373,8.746H45.12V51.68h2.915Zm0-5.831H45.12V45.849h2.915ZM53.866,64.07h7.289v4.373H53.866Zm0-15.306h7.289v4.373H53.866Z" transform="translate(-32 -32)" fill="#7d8c48"/></g><g transform="translate(6.101 15.196)"><g transform="translate(0 0)"><rect width="4.245" height="1.819" fill="#7d8c48"/></g></g><g transform="translate(11.558 15.196)"><g transform="translate(0 0)"><rect width="1.819" height="1.819" fill="#7d8c48"/></g></g><g transform="translate(6.101 21.26)"><g transform="translate(0 0)"><rect width="4.245" height="1.213" fill="#7d8c48"/></g></g><g transform="translate(11.558 21.26)"><g transform="translate(0 0)"><rect width="1.819" height="1.213" fill="#7d8c48"/></g></g><g transform="translate(6.101 26.717)"><g transform="translate(0 0)"><rect width="4.245" height="1.819" fill="#7d8c48"/></g></g><g transform="translate(11.558 26.717)"><g transform="translate(0 0)"><rect width="1.819" height="1.819" fill="#7d8c48"/></g></g><g transform="translate(26.111 6.101)"><g transform="translate(0)"><rect width="1.819" height="1.213" fill="#7d8c48"/></g></g><g transform="translate(29.143 6.101)"><g transform="translate(0)"><rect width="1.213" height="1.213" fill="#7d8c48"/></g></g><g transform="translate(26.111 21.26)"><g transform="translate(0 0)"><rect width="1.819" height="1.213" fill="#7d8c48"/></g></g><g transform="translate(29.143 21.26)"><g transform="translate(0 0)"><rect width="1.213" height="1.213" fill="#7d8c48"/></g></g><g transform="translate(26.111 36.419)"><g transform="translate(0 0)"><rect width="1.819" height="1.213" fill="#7d8c48"/></g></g><g transform="translate(29.143 36.419)"><g transform="translate(0 0)"><rect width="1.213" height="1.213" fill="#7d8c48"/></g></g></g></g></svg>