<svg xmlns="http://www.w3.org/2000/svg" xmlns:xlink="http://www.w3.org/1999/xlink" width="102" height="102" viewBox="0 0 102 102"><defs><filter id="a" x="0" y="0" width="102" height="102" filterUnits="userSpaceOnUse"><feOffset dy="3" input="SourceAlpha"/><feGaussianBlur stdDeviation="3" result="b"/><feFlood flood-opacity="0.161"/><feComposite operator="in" in2="b"/><feComposite in="SourceGraphic"/></filter></defs><g transform="translate(-594.023 -5015.196)"><g transform="translate(603.023 5021.196)"><g transform="matrix(1, 0, 0, 1, -9, -6)" filter="url(#a)"><circle cx="42" cy="42" r="42" transform="translate(9 6)" fill="#fff"/></g></g><g transform="translate(610.085 5035.26)"><g transform="translate(50.046 5.7)"><path d="M394.627,52.53h-4.395A.527.527,0,0,1,389.7,52V6.232a.527.527,0,0,1,.532-.532h4.395a.527.527,0,0,1,.532.532V52A.541.541,0,0,1,394.627,52.53Zm-3.863-1.064h3.331V6.764h-3.331Z" transform="translate(-389.7 -5.7)" fill="#7d8c48"/></g><g transform="translate(9.6 5.7)"><path d="M14.527,52.53H10.132A.527.527,0,0,1,9.6,52V6.232a.527.527,0,0,1,.532-.532h4.395a.527.527,0,0,1,.532.532V52A.541.541,0,0,1,14.527,52.53Zm-3.863-1.064h3.331V6.764H10.664Z" transform="translate(-9.6 -5.7)" fill="#7d8c48"/></g><g transform="translate(13.995 45.38)"><path d="M69.255,383.6H51.432a.532.532,0,0,1,0-1.064H69.255a.527.527,0,0,1,.532.532A.534.534,0,0,1,69.255,383.6Zm0-3.937H51.432a.532.532,0,0,1,0-1.064H69.255a.527.527,0,0,1,.532.532A.534.534,0,0,1,69.255,379.664Z" transform="translate(-50.9 -378.6)" fill="#7d8c48"/></g><g transform="translate(24.497 7.637)"><path d="M153.814,32.115a.527.527,0,0,1-.532-.532V24.964h-2.618v6.619a.532.532,0,0,1-1.064,0V24.432a.527.527,0,0,1,.532-.532h3.682a.527.527,0,0,1,.532.532v7.151A.534.534,0,0,1,153.814,32.115Z" transform="translate(-149.6 -23.9)" fill="#7d8c48"/></g><g transform="translate(18.113 7.637)"><path d="M93.814,32.115a.527.527,0,0,1-.532-.532V24.964H90.664v6.619a.532.532,0,0,1-1.064,0V24.432a.527.527,0,0,1,.532-.532h3.682a.527.527,0,0,1,.532.532v7.151A.534.534,0,0,1,93.814,32.115Z" transform="translate(-89.6 -23.9)" fill="#7d8c48"/></g><g transform="translate(16.389 22.928)"><path d="M77.614,175.815a.527.527,0,0,1-.532-.532v-6.619H74.464v6.619a.532.532,0,1,1-1.064,0v-7.151a.527.527,0,0,1,.532-.532h3.682a.527.527,0,0,1,.532.532v7.151A.527.527,0,0,1,77.614,175.815Z" transform="translate(-73.4 -167.6)" fill="#7d8c48"/></g><g transform="translate(20.549 41.943)"><path d="M120.683,350.8a.527.527,0,0,1-.532-.532v-2.9h-6.587v2.9a.532.532,0,0,1-1.064,0v-3.437a.527.527,0,0,1,.532-.532h7.651a.527.527,0,0,1,.532.532v3.437A.527.527,0,0,1,120.683,350.8Z" transform="translate(-112.5 -346.3)" fill="#7d8c48"/></g><g transform="translate(18.326 38.506)"><path d="M99.793,318.5a.527.527,0,0,1-.532-.532v-2.9H92.675v2.373h1.692a.532.532,0,0,1,0,1.064H92.132a.527.527,0,0,1-.532-.532v-3.437a.527.527,0,0,1,.532-.532h7.651a.527.527,0,0,1,.532.532v3.437A.518.518,0,0,1,99.793,318.5Z" transform="translate(-91.6 -314)" fill="#7d8c48"/></g><g transform="translate(22.177 26.641)"><path d="M135.983,207a.527.527,0,0,1-.532-.532v-2.9h-6.587v2.9a.532.532,0,1,1-1.064,0v-3.437a.527.527,0,0,1,.532-.532h7.651a.527.527,0,0,1,.532.532v3.437A.534.534,0,0,1,135.983,207Z" transform="translate(-127.8 -202.5)" fill="#7d8c48"/></g><g transform="translate(43.842 6.775)"><path d="M334.816,61.556h-2.884a.527.527,0,0,1-.532-.532V16.332a.527.527,0,0,1,.532-.532h2.884a.527.527,0,0,1,.532.532V61.024A.541.541,0,0,1,334.816,61.556Zm-2.352-1.064h1.82V16.864h-1.82Z" transform="translate(-331.4 -15.8)" fill="#7d8c48"/></g><g transform="translate(31.818 6.775)"><path d="M221.816,61.556h-2.884a.527.527,0,0,1-.532-.532V16.332a.527.527,0,0,1,.532-.532h2.884a.527.527,0,0,1,.532.532V61.024A.541.541,0,0,1,221.816,61.556Zm-2.352-1.064h1.82V16.864h-1.82Z" transform="translate(-218.4 -15.8)" fill="#7d8c48"/></g><g transform="translate(34.787 11.255)"><path d="M255.887,58.964h-9.055a.532.532,0,0,1,0-1.064h9.055a.527.527,0,0,1,.532.532A.534.534,0,0,1,255.887,58.964Z" transform="translate(-246.3 -57.9)" fill="#7d8c48"/></g><g transform="translate(34.787 13.936)"><path d="M255.887,84.164h-9.055a.532.532,0,0,1,0-1.064h9.055a.527.527,0,0,1,.532.532A.534.534,0,0,1,255.887,84.164Z" transform="translate(-246.3 -83.1)" fill="#7d8c48"/></g><g transform="translate(34.787 17.862)"><path d="M255.887,121.064h-9.055a.532.532,0,0,1,0-1.064h9.055a.527.527,0,0,1,.532.532A.534.534,0,0,1,255.887,121.064Z" transform="translate(-246.3 -120)" fill="#7d8c48"/></g><g transform="translate(34.787 20.544)"><path d="M255.887,146.264h-9.055a.532.532,0,0,1,0-1.064h9.055a.527.527,0,0,1,.532.532A.534.534,0,0,1,255.887,146.264Z" transform="translate(-246.3 -145.2)" fill="#7d8c48"/></g><g transform="translate(34.787 24.47)"><path d="M255.887,183.164h-9.055a.532.532,0,0,1,0-1.064h9.055a.527.527,0,0,1,.532.532A.534.534,0,0,1,255.887,183.164Z" transform="translate(-246.3 -182.1)" fill="#7d8c48"/></g><g transform="translate(34.787 27.152)"><path d="M255.887,208.364h-9.055a.532.532,0,0,1,0-1.064h9.055a.527.527,0,0,1,.532.532A.534.534,0,0,1,255.887,208.364Z" transform="translate(-246.3 -207.3)" fill="#7d8c48"/></g><g transform="translate(34.787 31.078)"><path d="M255.887,245.264h-9.055a.532.532,0,0,1,0-1.064h9.055a.527.527,0,0,1,.532.532A.534.534,0,0,1,255.887,245.264Z" transform="translate(-246.3 -244.2)" fill="#7d8c48"/></g><g transform="translate(34.787 33.76)"><path d="M255.887,270.464h-9.055a.532.532,0,0,1,0-1.064h9.055a.527.527,0,0,1,.532.532A.534.534,0,0,1,255.887,270.464Z" transform="translate(-246.3 -269.4)" fill="#7d8c48"/></g><g transform="translate(34.787 37.686)"><path d="M255.887,307.364h-9.055a.532.532,0,0,1,0-1.064h9.055a.527.527,0,0,1,.532.532A.534.534,0,0,1,255.887,307.364Z" transform="translate(-246.3 -306.3)" fill="#7d8c48"/></g><g transform="translate(34.787 40.368)"><path d="M255.887,332.564h-9.055a.532.532,0,0,1,0-1.064h9.055a.527.527,0,0,1,.532.532A.534.534,0,0,1,255.887,332.564Z" transform="translate(-246.3 -331.5)" fill="#7d8c48"/></g><g transform="translate(34.787 44.294)"><path d="M255.887,369.464h-9.055a.532.532,0,0,1,0-1.064h9.055a.527.527,0,0,1,.532.532A.534.534,0,0,1,255.887,369.464Z" transform="translate(-246.3 -368.4)" fill="#7d8c48"/></g><g transform="translate(34.787 46.976)"><path d="M255.887,394.664h-9.055a.532.532,0,0,1,0-1.064h9.055a.527.527,0,0,1,.532.532A.534.534,0,0,1,255.887,394.664Z" transform="translate(-246.3 -393.6)" fill="#7d8c48"/></g><g transform="translate(46.726 14.787)"><path d="M362.352,96.091h-3.32a.532.532,0,0,1,0-1.064h3.32a.527.527,0,0,1,.532.532A.534.534,0,0,1,362.352,96.091Zm0-3.926h-3.32a.532.532,0,0,1,0-1.064h3.32a.527.527,0,0,1,.532.532A.534.534,0,0,1,362.352,92.164Z" transform="translate(-358.5 -91.1)" fill="#7d8c48"/></g><g transform="translate(46.726 30.078)"><path d="M362.352,239.8h-3.32a.532.532,0,0,1,0-1.064h3.32a.527.527,0,0,1,.532.532A.534.534,0,0,1,362.352,239.8Zm0-3.937h-3.32a.532.532,0,0,1,0-1.064h3.32a.527.527,0,0,1,.532.532A.534.534,0,0,1,362.352,235.864Z" transform="translate(-358.5 -234.8)" fill="#7d8c48"/></g><g transform="translate(46.726 45.38)"><path d="M362.352,383.6h-3.32a.532.532,0,0,1,0-1.064h3.32a.527.527,0,0,1,.532.532A.534.534,0,0,1,362.352,383.6Zm0-3.937h-3.32a.532.532,0,0,1,0-1.064h3.32a.527.527,0,0,1,.532.532A.534.534,0,0,1,362.352,379.664Z" transform="translate(-358.5 -378.6)" fill="#7d8c48"/></g><g transform="translate(13.995 30.078)"><path d="M69.255,239.8H51.432a.532.532,0,0,1,0-1.064H69.255a.527.527,0,0,1,.532.532A.534.534,0,0,1,69.255,239.8Zm0-3.937H51.432a.532.532,0,0,1,0-1.064H69.255a.527.527,0,0,1,.532.532A.534.534,0,0,1,69.255,235.864Z" transform="translate(-50.9 -234.8)" fill="#7d8c48"/></g><g transform="translate(13.995 14.787)"><path d="M69.255,96.091H51.432a.532.532,0,0,1,0-1.064H69.255a.527.527,0,0,1,.532.532A.534.534,0,0,1,69.255,96.091Zm0-3.926H51.432a.532.532,0,0,1,0-1.064H69.255a.527.527,0,0,1,.532.532A.534.534,0,0,1,69.255,92.164Z" transform="translate(-50.9 -91.1)" fill="#7d8c48"/></g></g></g></svg>