<svg xmlns="http://www.w3.org/2000/svg" xmlns:xlink="http://www.w3.org/1999/xlink" width="102" height="102" viewBox="0 0 102 102"><defs><filter id="a" x="0" y="0" width="102" height="102" filterUnits="userSpaceOnUse"><feOffset dy="3" input="SourceAlpha"/><feGaussianBlur stdDeviation="3" result="b"/><feFlood flood-opacity="0.161"/><feComposite operator="in" in2="b"/><feComposite in="SourceGraphic"/></filter></defs><g transform="translate(-1009.675 -5015.376)"><g transform="translate(1018.675 5021.376)"><g transform="matrix(1, 0, 0, 1, -9, -6)" filter="url(#a)"><circle cx="42" cy="42" r="42" transform="translate(9 6)" fill="#fff"/></g></g><g transform="translate(1036 5040.977)"><path d="M42.209,0H36.069a3.842,3.842,0,0,0-3.837,3.837v2.3H30.7a2.3,2.3,0,0,0-2.3,2.3V22.256h-2.3V7.674a2.3,2.3,0,0,0-2.3-2.3H2.3A2.3,2.3,0,0,0,0,7.674V33.9a2.285,2.285,0,0,0,.675,1.628L5.147,40a2.285,2.285,0,0,0,1.628.675H23.79a2.3,2.3,0,0,0,2.3-2.3V23.79h2.3V37.6a2.3,2.3,0,0,0,2.3,2.3h1.535v2.3a3.842,3.842,0,0,0,3.837,3.837h6.139a3.842,3.842,0,0,0,3.837-3.837V36.069a3.842,3.842,0,0,0-3.837-3.837H36.069a3.842,3.842,0,0,0-3.837,3.837v2.3H30.7a.767.767,0,0,1-.767-.767V23.79h2.3v2.3a3.842,3.842,0,0,0,3.837,3.837h6.139a3.842,3.842,0,0,0,3.837-3.837V19.953a3.842,3.842,0,0,0-3.837-3.837H36.069a3.842,3.842,0,0,0-3.837,3.837v2.3h-2.3V8.442a.767.767,0,0,1,.767-.767h1.535v2.3a3.842,3.842,0,0,0,3.837,3.837h6.139a3.842,3.842,0,0,0,3.837-3.837V3.837A3.842,3.842,0,0,0,42.209,0ZM2.62,35.3H5.242a.126.126,0,0,1,.13.13v2.622Zm21.938,3.07a.767.767,0,0,1-.767.767H6.907V35.432a1.668,1.668,0,0,0-1.665-1.665H1.535V7.674A.767.767,0,0,1,2.3,6.907H23.79a.767.767,0,0,1,.767.767Zm9.209-2.3a2.3,2.3,0,0,1,2.3-2.3h6.139a2.3,2.3,0,0,1,2.3,2.3v6.139a2.3,2.3,0,0,1-2.3,2.3H36.069a2.3,2.3,0,0,1-2.3-2.3Zm0-16.116a2.3,2.3,0,0,1,2.3-2.3h6.139a2.3,2.3,0,0,1,2.3,2.3v6.139a2.3,2.3,0,0,1-2.3,2.3H36.069a2.3,2.3,0,0,1-2.3-2.3ZM44.511,9.977a2.3,2.3,0,0,1-2.3,2.3H36.069a2.3,2.3,0,0,1-2.3-2.3V3.837a2.3,2.3,0,0,1,2.3-2.3h6.139a2.3,2.3,0,0,1,2.3,2.3Z" fill="#7d8c48"/><path d="M50.3,52.139a.767.767,0,0,1-.767-.767.767.767,0,0,0-1.535,0,2.3,2.3,0,1,0,4.017-1.535A2.3,2.3,0,1,0,48,48.3a.767.767,0,0,0,1.535,0,.767.767,0,1,1,.767.767.767.767,0,0,0,0,1.535.767.767,0,1,1,0,1.535Z" transform="translate(-11.163 -10.698)" fill="#7d8c48"/><path d="M49.842,28.991A3.552,3.552,0,0,0,48,31.907a.767.767,0,0,0,.767.767h3.07a.767.767,0,1,0,0-1.535H49.758a4.236,4.236,0,0,1,1-.921A3.552,3.552,0,0,0,52.6,27.3a2.3,2.3,0,0,0-4.6,0,.767.767,0,0,0,1.535,0,.767.767,0,1,1,1.535,0C51.07,28.034,50.626,28.4,49.842,28.991Z" transform="translate(-11.163 -5.814)" fill="#7d8c48"/><path d="M51.837,10.139H51.07V4.767a.767.767,0,0,0-1.31-.543L48.225,5.76A.767.767,0,1,0,49.31,6.845l.225-.225v3.519h-.767a.767.767,0,1,0,0,1.535h3.07a.767.767,0,1,0,0-1.535Z" transform="translate(-11.163 -0.93)" fill="#7d8c48"/><path d="M22.116,16H6.767a.767.767,0,0,0,0,1.535H22.116a.767.767,0,0,0,0-1.535Z" transform="translate(-1.395 -3.721)" fill="#7d8c48"/><path d="M22.116,23H6.767a.767.767,0,1,0,0,1.535H22.116a.767.767,0,1,0,0-1.535Z" transform="translate(-1.395 -5.349)" fill="#7d8c48"/><path d="M22.116,30H6.767a.767.767,0,1,0,0,1.535H22.116a.767.767,0,1,0,0-1.535Z" transform="translate(-1.395 -6.977)" fill="#7d8c48"/><path d="M22.116,37H6.767a.767.767,0,1,0,0,1.535H22.116a.767.767,0,1,0,0-1.535Z" transform="translate(-1.395 -8.605)" fill="#7d8c48"/></g></g></svg>