<svg xmlns="http://www.w3.org/2000/svg" width="124" height="124" viewBox="0 0 124 124"><g transform="translate(-353 -7687.902)"><circle cx="62" cy="62" r="62" transform="translate(353 7687.902)" fill="#b8dcf3"/><g transform="translate(377.812 7713.884)"><path d="M67.746,3.365a1.419,1.419,0,0,0-1.419,1.419V30.519H54.558V16.494a1.419,1.419,0,0,0-1.419-1.419H45.421V11.218A1.419,1.419,0,0,0,44,9.8H34.865a1.419,1.419,0,0,0-1.419,1.419v3.858h-6.3V11.218A1.419,1.419,0,0,0,25.728,9.8H16.591a1.419,1.419,0,0,0-1.419,1.419v19.3H7.048V4.784a1.419,1.419,0,1,0-2.837,0V68.1A1.419,1.419,0,0,0,5.63,69.519h8.837A1.419,1.419,0,0,0,15.885,68.1V62.484H57.491V68.1a1.419,1.419,0,0,0,1.419,1.419h8.837A1.419,1.419,0,0,0,69.165,68.1V4.784a1.419,1.419,0,0,0-1.419-1.419ZM14.466,59.647H7.048V39.729h59.28V59.647ZM51.721,17.913V30.519h-6.3V17.913ZM36.284,12.637h6.3V30.519h-6.3Zm-2.837,5.276V30.519h-6.3V17.913ZM18.009,12.637h6.3V30.519h-6.3ZM16.591,33.356H66.328v3.536H7.048V33.356ZM13.048,66.682h-6v-4.2h6Zm53.28,0h-6v-4.2h6Z" fill="#20849e"/></g></g></svg>