<svg xmlns="http://www.w3.org/2000/svg" width="124" height="124" viewBox="0 0 124 124"><g transform="translate(-1145.023 -7908.249)"><circle cx="62" cy="62" r="62" transform="translate(1145.023 7908.249)" fill="#b8dcf3"/><g transform="translate(1172.713 7934.25)"><path d="M52.038,31.584v-.009a11.911,11.911,0,0,0-9.967-10.982V15.75a2.96,2.96,0,0,0,2.444-2.908V9.47A3.752,3.752,0,0,0,44.01,2H24.363a3.752,3.752,0,0,0-.5,7.471v3.372A2.959,2.959,0,0,0,26.3,15.75v4.843a11.915,11.915,0,0,0-9.968,10.994c-.013.235-.024.483-.024.731V62.841a7.529,7.529,0,0,0,7.52,7.52H44.543a7.529,7.529,0,0,0,7.52-7.52V32.318c0-.248-.011-.5-.024-.731v0Zm-33.449,1.2H49.783V57.92H18.589ZM22.879,5.761a1.485,1.485,0,0,1,1.483-1.482H44.01a1.482,1.482,0,1,1,0,2.965H24.363A1.485,1.485,0,0,1,22.879,5.761Zm3.257,3.761h16.1v3.321a.683.683,0,0,1-.681.681h-.6c-.008,0-.015,0-.022,0H27.441c-.008,0-.015,0-.022,0h-.6a.683.683,0,0,1-.681-.681V9.522Zm1.384,13.222a1.139,1.139,0,0,0,1.06-1.136V15.8H39.792v5.806a1.138,1.138,0,0,0,1.06,1.136A9.624,9.624,0,0,1,49.6,30.505H18.772a9.624,9.624,0,0,1,8.75-7.761ZM44.542,68.082H23.829a5.247,5.247,0,0,1-5.241-5.241V60.2H49.782v2.643a5.247,5.247,0,0,1-5.241,5.241Z" fill="#20849e"/><path d="M26.2,34.61a1.139,1.139,0,0,0-2.108,0l-2.665,6.5-.014.033-2.131,5.2a1.139,1.139,0,0,0,2.109.864l1.843-4.5h3.821L28.9,47.2a1.136,1.136,0,0,0,1.054.708,1.11,1.11,0,0,0,.432-.085,1.139,1.139,0,0,0,.623-1.486Zm-2.03,5.817.976-2.382.976,2.382Z" transform="translate(0.403 4.446)" fill="#20849e"/><path d="M37.414,45.632H33.077V35.041a1.139,1.139,0,1,0-2.279,0v11.73a1.138,1.138,0,0,0,1.139,1.139h5.477a1.139,1.139,0,0,0,0-2.279Z" transform="translate(2.019 4.446)" fill="#20849e"/><path d="M41.9,36.181a1.662,1.662,0,0,1,1.562,1.742,1.139,1.139,0,0,0,2.279,0,3.845,3.845,0,1,0-7.681,0v5.966a3.845,3.845,0,1,0,7.681,0,1.139,1.139,0,0,0-2.279,0,1.571,1.571,0,1,1-3.124,0V37.923A1.661,1.661,0,0,1,41.9,36.181Z" transform="translate(3.03 4.446)" fill="#20849e"/></g></g></svg>