<svg xmlns="http://www.w3.org/2000/svg" width="42.8" height="55.33" viewBox="0 0 42.8 55.33"><path d="M94.262,14.718c.317-.5.639-.944.436-1.536a2.505,2.505,0,0,0-2.259-1.413,1.32,1.32,0,0,0-.956.687l0,0-.236.374Zm-4.377.3L92.893,16.9l.642-1.025-3.008-1.889Zm3.8,3.185-3.02,4.825V41l4.843,2.1a.693.693,0,0,1,.409.669l-.143,15.27a.682.682,0,0,1-.4.619l-13.4,6a.676.676,0,0,1-.589-.015l-9.041-4.233H57.466a4.148,4.148,0,0,1-4.138-4.135V18.862a4.149,4.149,0,0,1,4.138-4.138H66a2.078,2.078,0,0,1,1.882-1.207h.508a3.672,3.672,0,0,1,7.215,0h.511A2.077,2.077,0,0,1,78,14.724h8.533a4.135,4.135,0,0,1,1.7.368L90.3,11.775a.517.517,0,0,1,.045-.078l0,0a2.613,2.613,0,0,1,1.921-1.291,3.858,3.858,0,0,1,3.723,2.333,2.61,2.61,0,0,1-.293,2.241.657.657,0,0,1-.078.123Zm-1.517-.143-.926-.582L82.879,30.828a4.963,4.963,0,0,0,.015,2.038l2.868-4.58a.591.591,0,0,1,.075-.117l3.531-5.638a.765.765,0,0,1,.072-.117ZM90.088,16.75l-.93-.582L79.882,30.983a5.131,5.131,0,0,0,1.843-.884Zm-6.98,18.342a.669.669,0,0,1-.269.277l-4.192,2.641a.963.963,0,0,1-1.461-.9l.469-5.01a.676.676,0,0,1,.122-.332L84.91,20.383a2.276,2.276,0,0,0-1.512-.574H77.435a2.055,2.055,0,0,1-1.321.478H67.881a2.055,2.055,0,0,1-1.321-.478H60.6A2.3,2.3,0,0,0,58.3,22.1V54.033A2.3,2.3,0,0,0,60.6,56.327H68.2l-.033-12.333a.675.675,0,0,1,.433-.681l13.352-5.855a.67.67,0,0,1,.547,0l3.191,1.386V30.965Zm-1.326-.669a21.413,21.413,0,0,1-.374-2.537,19.6,19.6,0,0,1-2.432.771l-.353,3.755Zm5.709-18.156a2.718,2.718,0,0,0-.962-.17H78.188c0,.421.021,2.04-.012,2.345H83.4a3.653,3.653,0,0,1,2.244.773Zm-.43,12.512v10.66l2.235.971v-15.2Zm-25.3,5.061a.684.684,0,1,1,.968-.968l.9.9L65.9,31.517a.685.685,0,1,1,.968.968l-2.743,2.743a.686.686,0,0,1-.971,0Zm3.893.32A.684.684,0,1,1,67,34.41,3.586,3.586,0,1,1,65.01,30.5a.684.684,0,0,1-.582,1.236,2.218,2.218,0,1,0,1.231,2.42Zm-3.92-8.966a.686.686,0,1,1,.968-.971l.9.9,2.259-2.259a.686.686,0,0,1,.971.968L64.1,26.582a.687.687,0,0,1-.968,0Zm7.347,10.98a.686.686,0,0,1,0-1.372h6.842a.686.686,0,0,1,0,1.372Zm0-3.487a.684.684,0,0,1,0-1.368h6.842a.684.684,0,0,1,0,1.368Zm0-5.163a.686.686,0,0,1,0-1.372h9.889a.686.686,0,1,1,0,1.372Zm0-3.484a.686.686,0,0,1,0-1.372H82.018a.686.686,0,0,1,0,1.372ZM63.453,47.454a3.587,3.587,0,1,1-3.585,3.588,3.587,3.587,0,0,1,3.585-3.588Zm1.568,2.02a2.214,2.214,0,1,0,.65,1.567A2.22,2.22,0,0,0,65.021,49.473ZM63.453,38.8a3.588,3.588,0,1,1-3.585,3.588A3.588,3.588,0,0,1,63.453,38.8Zm1.568,2.02a2.218,2.218,0,1,0,0,3.137A2.22,2.22,0,0,0,65.021,40.824Zm.613-15.315a.684.684,0,0,1,1.345.251,3.586,3.586,0,1,1-1.993-3.908A.684.684,0,1,1,64.4,23.09a2.214,2.214,0,1,0,1.234,2.42ZM72,12.848A1.049,1.049,0,1,1,70.949,13.9,1.049,1.049,0,0,1,72,12.848Zm-6.179,5.593c-.033-.3-.012-1.924-.012-2.345H57.466A2.776,2.776,0,0,0,54.7,18.862V57.277a2.775,2.775,0,0,0,2.767,2.764H69.419l-.816-.382a.675.675,0,0,1-.391-.627L68.206,57.7H60.6a3.674,3.674,0,0,1-3.666-3.663V22.1A3.674,3.674,0,0,1,60.6,18.441Zm4.55-5.865A2.3,2.3,0,0,0,69.7,14.2a.687.687,0,0,1-.687.684H67.881a.708.708,0,0,0-.705.7v2.624a.706.706,0,0,0,.705.7h8.233a.708.708,0,0,0,.705-.7V15.591a.708.708,0,0,0-.705-.7H74.985A.687.687,0,0,1,74.3,14.2a2.3,2.3,0,0,0-3.929-1.628ZM86.153,40.531a.548.548,0,0,1-.1-.042L82.23,38.828,70.513,43.967l11.045,5.121,11.983-5.345ZM69.572,56.949l0,1.658,11.434,5.357V50.34L69.536,45.019ZM94.546,44.792,82.38,50.217V63.985L94.417,58.6Z" transform="translate(-53.328 -10.391)" fill="#c5a07a"/></svg>