<svg xmlns="http://www.w3.org/2000/svg" width="51.901" height="51.919" viewBox="0 0 51.901 51.919"><path d="M60.189,34.358h-.006a.736.736,0,0,0-.735.73A24.481,24.481,0,0,1,14.378,48.129l2.285-.614a.736.736,0,0,0,.329-1.231l-4.742-4.741a.736.736,0,0,0-1.231.329l-.87,3.238-.867,3.24a.736.736,0,0,0,.9.9l2.706-.724A26.131,26.131,0,0,0,24.98,58.837a25.732,25.732,0,0,0,9.953,2.012,26.073,26.073,0,0,0,6.752-.9,25.7,25.7,0,0,0,13.907-9.319A26.121,26.121,0,0,0,60.919,35.1a.736.736,0,0,0-.73-.741ZM12.111,43.484l2.941,2.941L11.034,47.5ZM9.754,35.421a.736.736,0,0,0,.735-.73,24.482,24.482,0,0,1,45.072-13.04l-2.288.613a.736.736,0,0,0-.329,1.231l4.741,4.741a.736.736,0,0,0,1.231-.329l.87-3.238.867-3.24a.736.736,0,0,0-.9-.9l-2.7.724a26.142,26.142,0,0,0-12.092-10.31,25.945,25.945,0,0,0-30.612,8.2A26.12,26.12,0,0,0,9.018,34.68a.736.736,0,0,0,.73.741h.006ZM57.825,26.3l-2.941-2.941L58.9,22.278ZM52.958,39.01a.736.736,0,0,0,.736-.736V31.252a.736.736,0,0,0-.736-.736H50.2a16.13,16.13,0,0,0-1.6-3.868L50.55,24.7a.736.736,0,0,0,0-1.04L45.585,18.7a.736.736,0,0,0-1.04,0L42.6,20.64a16.206,16.206,0,0,0-3.868-1.6V16.289a.736.736,0,0,0-.736-.736H30.971a.736.736,0,0,0-.736.736v2.753a16.134,16.134,0,0,0-3.868,1.6L24.421,18.7a.736.736,0,0,0-1.04,0l-4.965,4.965a.736.736,0,0,0,0,1.04l1.945,1.947a16.118,16.118,0,0,0-1.6,3.868H16.005a.736.736,0,0,0-.736.736v7.023a.736.736,0,0,0,.736.736h2.756a16.2,16.2,0,0,0,1.6,3.868l-1.945,1.947a.736.736,0,0,0,0,1.04l4.965,4.965a.736.736,0,0,0,1.04,0l1.947-1.945a16.2,16.2,0,0,0,3.868,1.6v2.753a.736.736,0,0,0,.736.736h7.023a.736.736,0,0,0,.736-.736V50.485a16.173,16.173,0,0,0,3.868-1.6l1.947,1.947a.736.736,0,0,0,1.04,0l4.965-4.965a.736.736,0,0,0,0-1.04L48.6,42.879a16.138,16.138,0,0,0,1.6-3.868Zm-4.044-.9A14.682,14.682,0,0,1,47.053,42.6a.736.736,0,0,0,.1.911l1.833,1.833L45.065,49.27l-1.833-1.833a.736.736,0,0,0-.91-.1,14.72,14.72,0,0,1-4.494,1.861.736.736,0,0,0-.57.717V52.5H31.707V49.911a.736.736,0,0,0-.57-.717,14.744,14.744,0,0,1-4.494-1.858.736.736,0,0,0-.909.1L23.9,49.27l-3.925-3.925,1.83-1.833a.736.736,0,0,0,.1-.909,14.746,14.746,0,0,1-1.858-4.494.736.736,0,0,0-.717-.57H16.741V31.987h2.594a.736.736,0,0,0,.717-.571,14.663,14.663,0,0,1,1.858-4.493.736.736,0,0,0-.1-.909l-1.83-1.833L23.9,20.257l1.833,1.833a.735.735,0,0,0,.911.1,14.677,14.677,0,0,1,4.493-1.861.736.736,0,0,0,.57-.717V17.024h5.552v2.591a.736.736,0,0,0,.57.717,14.744,14.744,0,0,1,4.494,1.858.736.736,0,0,0,.909-.1l1.833-1.83,3.925,3.925-1.833,1.833a.736.736,0,0,0-.1.911,14.68,14.68,0,0,1,1.861,4.493.736.736,0,0,0,.717.57h2.591v5.552H49.631a.736.736,0,0,0-.717.57Zm-4.07-9V29.1a.746.746,0,0,0-.016-.081L44.821,29c-.006-.022-.014-.043-.022-.064l-.008-.021a.757.757,0,0,0-.038-.077v0a.747.747,0,0,0-.048-.072l-.014-.018q-.021-.026-.044-.051l-.016-.016a.735.735,0,0,0-.062-.054l0,0a.729.729,0,0,0-.075-.05l0,0-3.256-1.881c-.016-.011-.032-.023-.049-.032L40.1,26.037l-.438-.253L34.851,23a.736.736,0,0,0-.735,0L29.3,25.784l-4.816,2.782-.006,0a.719.719,0,0,0-.074.05l-.006.005a.745.745,0,0,0-.06.053l-.016.017c-.015.016-.03.033-.044.05l-.015.019a.755.755,0,0,0-.048.072v0a.756.756,0,0,0-.038.077l-.008.021q-.012.032-.022.064l-.006.022a.741.741,0,0,0-.016.081v.005a.723.723,0,0,0-.006.09s0,0,0,.006V40.324a.736.736,0,0,0,.368.637L29.3,43.743l4.816,2.779.006,0a.721.721,0,0,0,.081.04l.005,0a.724.724,0,0,0,.078.026l.022.006c.022.005.044.01.067.013l.022,0a.751.751,0,0,0,.088.006.729.729,0,0,0,.088-.006l.022,0c.022,0,.045-.008.067-.013l.022-.006a.724.724,0,0,0,.078-.026l.005,0a.72.72,0,0,0,.081-.04l.006,0,4.816-2.779,4.816-2.782a.736.736,0,0,0,.368-.637V29.2s0,0,0-.006a.723.723,0,0,0-.006-.09ZM34.483,33.914l-1.744-1.007q1.676-.981,3.48-2.058c1.52-.9,3.087-1.834,4.59-2.706l1.835,1.06Zm-6.135-1.843,1.843,1.064-.453.841-1.845-1.065Zm1.177-1.019c1.249-.737,2.481-1.486,3.681-2.216,1.4-.854,2.849-1.735,4.311-2.587l1.823,1.046c-1.282.749-2.595,1.529-3.874,2.289-1.467.872-2.862,1.7-4.2,2.476l-1.746-1.008Zm.509-3.994,4.448-2.567,1.574.908c-1.227.724-2.438,1.461-3.617,2.179-1.425.868-2.9,1.762-4.382,2.626l-1.736-1ZM25.586,39.9V30.477l1.487.858-.815,1.505a.736.736,0,0,0,.279.987l3.121,1.8a.735.735,0,0,0,1.016-.288l.791-1.47,2.281,1.317V44.61l-3.712-2.142L25.586,39.9Zm13.345,2.569L35.218,44.61V35.188l8.161-4.711V39.9Z" transform="translate(-9.018 -8.93)" fill="#c5a07a"/></svg>