<svg xmlns="http://www.w3.org/2000/svg" xmlns:xlink="http://www.w3.org/1999/xlink" width="102" height="102" viewBox="0 0 102 102"><defs><filter id="a" x="0" y="0" width="102" height="102" filterUnits="userSpaceOnUse"><feOffset dy="3" input="SourceAlpha"/><feGaussianBlur stdDeviation="3" result="b"/><feFlood flood-opacity="0.161"/><feComposite operator="in" in2="b"/><feComposite in="SourceGraphic"/></filter></defs><g transform="translate(-800 -2292.226)"><g transform="translate(809 2298.226)"><g transform="matrix(1, 0, 0, 1, -9, -6)" filter="url(#a)"><circle cx="42" cy="42" r="42" transform="translate(9 6)" fill="#e3f1fa"/></g></g><g transform="translate(823.749 2313.333)"><path d="M5.859,20.115h.78V41.792a2.441,2.441,0,0,0,2.439,2.439H27.449a.824.824,0,0,0,0-1.648H9.077a.792.792,0,0,1-.791-.791V20.115H42.007v8.026a.824.824,0,1,0,1.648,0V20.115h.783a.824.824,0,0,0,.824-.824V11.254a1.244,1.244,0,0,0-.165-.494L40.274,4.33A.824.824,0,0,0,39.615,4H10.681a.824.824,0,0,0-.659.329L5.2,10.76a1.25,1.25,0,0,0-.165.494v8.037a.824.824,0,0,0,.824.824Zm37.755-1.648H6.682V12.078H43.614ZM11.093,5.648H39.2L42.79,10.43H7.506Z" fill="#7d8c48"/><path d="M32.511,29H24.272a.824.824,0,1,0,0,1.648h8.239a.824.824,0,1,0,0-1.648Z" transform="translate(-3.243 -4.403)" fill="#7d8c48"/><path d="M44.7,55.739a10,10,0,0,0,9.993-9.993c-.549-13.256-19.438-13.252-19.985,0A10,10,0,0,0,44.7,55.739Zm0-18.337a8.354,8.354,0,0,1,8.345,8.344c-.459,11.071-16.233,11.067-16.69,0A8.354,8.354,0,0,1,44.7,37.4Z" transform="translate(-5.226 -5.602)" fill="#7d8c48"/><path d="M43.323,44.26a.824.824,0,0,0,.824-.824,1.924,1.924,0,1,1,2.567,1.812,2.136,2.136,0,0,0-1.469,2.007v1.673a.824.824,0,1,0,1.648,0V47.256a.517.517,0,0,1,.373-.455,3.567,3.567,0,1,0-3.422-6.156C42.934,41.233,41.579,44.024,43.323,44.26Z" transform="translate(-6.595 -6.313)" fill="#7d8c48"/><path d="M46.661,52.871a.824.824,0,1,0,.824.824.824.824,0,0,0-.824-.824Z" transform="translate(-7.186 -8.608)" fill="#7d8c48"/></g></g></svg>