<svg xmlns="http://www.w3.org/2000/svg" xmlns:xlink="http://www.w3.org/1999/xlink" width="103" height="103" viewBox="0 0 103 103"><defs><filter id="a" x="0" y="0" width="103" height="103" filterUnits="userSpaceOnUse"><feOffset dy="3" input="SourceAlpha"/><feGaussianBlur stdDeviation="3" result="b"/><feFlood flood-opacity="0.161"/><feComposite operator="in" in2="b"/><feComposite in="SourceGraphic"/></filter><clipPath id="c"><path d="M0-682.665H47.668V-635H0Z" transform="translate(0 682.665)" fill="#7d8c48"/></clipPath></defs><g transform="translate(-1218.023 -2101)"><g transform="matrix(1, 0, 0, 1, 1218.02, 2101)" filter="url(#a)"><circle cx="42.5" cy="42.5" r="42.5" transform="translate(9 6)" fill="#f7faef"/></g><g transform="translate(1245.189 2808.665)"><g transform="translate(0 -682.665)"><g clip-path="url(#c)"><g transform="translate(9.171 35.798)"><path d="M-427.879-111.621H-458.6a1.4,1.4,0,0,1-1.4-1.4V-118.6a1.4,1.4,0,0,1,1.4-1.4h30.724" transform="translate(459.999 120)" fill="none" stroke="#7d8c48" stroke-linecap="round" stroke-linejoin="round" stroke-miterlimit="10" stroke-width="1"/></g><g transform="translate(11.964 41.384)"><path d="M0,0H27.757" fill="none" stroke="#7d8c48" stroke-linecap="round" stroke-linejoin="round" stroke-miterlimit="10" stroke-width="1"/></g><g transform="translate(11.964 38.591)"><path d="M-369.753,0H-397.51" transform="translate(397.51)" fill="none" stroke="#7d8c48" stroke-linecap="round" stroke-linejoin="round" stroke-miterlimit="10" stroke-width="1"/></g><g transform="translate(6.377 0.698)"><path d="M-465.085-430.359h-30.724a4.19,4.19,0,0,0-4.19,4.19v5.586a4.19,4.19,0,0,0,4.19,4.19h30.724v-2.793a5.922,5.922,0,0,1,0-8.379v-35.1h-30.724a4.19,4.19,0,0,0-4.19,4.19v32.306" transform="translate(499.999 462.666)" fill="none" stroke="#7d8c48" stroke-linecap="round" stroke-linejoin="round" stroke-miterlimit="10" stroke-width="1"/></g><g transform="translate(10.567 0.698)"><path d="M0,0V32.306" fill="none" stroke="#7d8c48" stroke-linecap="round" stroke-linejoin="round" stroke-miterlimit="10" stroke-width="1"/></g><g transform="translate(13.36 3.491)"><path d="M0-132.7v-9.962H25.138v18.341H0v-5.586" transform="translate(0 142.666)" fill="none" stroke="#7d8c48" stroke-linecap="round" stroke-linejoin="round" stroke-miterlimit="10" stroke-width="1"/></g><g transform="translate(16.153 14.85)"><path d="M-111.621,0H-120" transform="translate(120)" fill="none" stroke="#7d8c48" stroke-linecap="round" stroke-linejoin="round" stroke-miterlimit="10" stroke-width="1"/></g><g transform="translate(16.153 6.284)"><path d="M-55.81,0l4.19,8.565a4.19,4.19,0,0,1-4.19,4.19A4.19,4.19,0,0,1-60,8.565L-55.81,0h11.172l4.19,8.565a4.19,4.19,0,0,1-4.19,4.19,4.19,4.19,0,0,1-4.19-4.19L-44.638,0" transform="translate(60)" fill="none" stroke="#7d8c48" stroke-linecap="round" stroke-linejoin="round" stroke-miterlimit="10" stroke-width="1"/></g><g transform="translate(27.325 14.85)"><path d="M-111.621,0H-120" transform="translate(120)" fill="none" stroke="#7d8c48" stroke-linecap="round" stroke-linejoin="round" stroke-miterlimit="10" stroke-width="1"/></g></g></g></g></g></svg>