<svg xmlns="http://www.w3.org/2000/svg" xmlns:xlink="http://www.w3.org/1999/xlink" width="102" height="102" viewBox="0 0 102 102"><defs><filter id="a" x="0" y="0" width="102" height="102" filterUnits="userSpaceOnUse"><feOffset dy="3" input="SourceAlpha"/><feGaussianBlur stdDeviation="3" result="b"/><feFlood flood-opacity="0.161"/><feComposite operator="in" in2="b"/><feComposite in="SourceGraphic"/></filter></defs><g transform="translate(-177.973 -2577.986)"><g transform="translate(186.973 2583.986)"><g transform="matrix(1, 0, 0, 1, -9, -6)" filter="url(#a)"><circle cx="42" cy="42" r="42" transform="translate(9 6)" fill="#e3f1fa"/></g></g><g transform="translate(207.256 2604.445)"><g transform="translate(0 0)"><g transform="translate(0 0)"><path d="M42.8,4.266a2.13,2.13,0,0,0-1.539-.646H38.151a4.922,4.922,0,0,0-1.263-2.131A5.009,5.009,0,0,0,33.3,0H10.135a5.074,5.074,0,0,0-4.85,3.62H2.172A2.172,2.172,0,0,0,0,5.792,2.118,2.118,0,0,0,.633,7.318a2.131,2.131,0,0,0,1.539.646h2.9V32.576a.724.724,0,0,0,.724.724h7.963v9.411a.724.724,0,0,0,.724.724H37.644a.724.724,0,0,0,.724-.724V7.963h2.9a2.172,2.172,0,0,0,2.172-2.172A2.118,2.118,0,0,0,42.8,4.266ZM5.068,6.516h-2.9a.7.7,0,0,1-.515-.222.693.693,0,0,1-.208-.5.724.724,0,0,1,.724-.724h2.9ZM30.289,3.066c.012-.02.028-.037.041-.056a3.641,3.641,0,0,1,.39-.473l.043-.044a3.65,3.65,0,0,1,1.1-.743c.033-.014.066-.025.1-.038a3.671,3.671,0,0,1,.518-.161c.054-.012.106-.026.16-.035a3.633,3.633,0,0,1,3.984,2.1H29.988A3.551,3.551,0,0,1,30.289,3.066Zm-23.773,2a3.624,3.624,0,0,1,3.62-3.62H29.749a5.02,5.02,0,0,0-1.086,1.576c-.022.051-.043.1-.064.156-.033.083-.064.166-.093.251s-.057.178-.083.269c-.013.048-.025.1-.038.145s-.022.077-.03.117a.7.7,0,0,0-.122.382V22.51a3.754,3.754,0,0,0-1.642.8,2.226,2.226,0,0,1-3,0,3.656,3.656,0,0,0-4.731,0,2.22,2.22,0,0,1-2.99,0,3.651,3.651,0,0,0-4.728,0,2.219,2.219,0,0,1-2.99,0,3.759,3.759,0,0,0-1.64-.8V5.068Zm0,18.945a2.954,2.954,0,0,1,.771.456,3.651,3.651,0,0,0,4.729,0,2.219,2.219,0,0,1,2.99,0,3.651,3.651,0,0,0,4.728,0,2.225,2.225,0,0,1,2.995,0,3.656,3.656,0,0,0,4.731,0,2.974,2.974,0,0,1,.774-.457v1.394a3.754,3.754,0,0,0-1.642.8,2.226,2.226,0,0,1-3,0,3.656,3.656,0,0,0-4.731,0,2.22,2.22,0,0,1-2.99,0,3.651,3.651,0,0,0-4.728,0,2.219,2.219,0,0,1-2.99,0,3.759,3.759,0,0,0-1.64-.8Zm0,7.84V26.908a2.954,2.954,0,0,1,.771.456,3.651,3.651,0,0,0,4.729,0,2.219,2.219,0,0,1,2.99,0,3.651,3.651,0,0,0,4.728,0,2.225,2.225,0,0,1,2.995,0,3.656,3.656,0,0,0,4.731,0,2.974,2.974,0,0,1,.774-.457v4.945H6.516Zm30.4,10.135H15.2V40.539H30.4a.724.724,0,1,0,0-1.448H15.2V33.3H28.957a.724.724,0,0,0,.724-.724V7.963H36.92ZM41.263,6.516H29.681V5.068H41.263a.7.7,0,0,1,.515.222.693.693,0,0,1,.208.5A.724.724,0,0,1,41.263,6.516Z" transform="translate(0 0)" fill="#7d8c48"/><path d="M360.725,433.449h1.448a.724.724,0,0,0,0-1.448h-1.448a.724.724,0,0,0,0,1.448Z" transform="translate(-327.425 -392.91)" fill="#7d8c48"/></g></g></g></g></svg>