<svg xmlns="http://www.w3.org/2000/svg" width="124" height="124" viewBox="0 0 124 124"><g transform="translate(-582.675 -1970.553)"><path d="M62,0A62,62,0,1,1,0,62,62,62,0,0,1,62,0Z" transform="translate(582.675 1970.553)" fill="#b8dcf3"/><path d="M26.782,0H2.417V-4.834l11.5-12.256a28.368,28.368,0,0,0,3.5-4.517,7.256,7.256,0,0,0,1.135-3.662,5.43,5.43,0,0,0-1.2-3.723,4.318,4.318,0,0,0-3.418-1.355A4.657,4.657,0,0,0,10.168-28.7a6.528,6.528,0,0,0-1.379,4.333H1.709A11.654,11.654,0,0,1,3.259-30.3a10.927,10.927,0,0,1,4.382-4.211,13.32,13.32,0,0,1,6.421-1.526q5.493,0,8.533,2.637a9.328,9.328,0,0,1,3.04,7.446,11.952,11.952,0,0,1-1.367,5.371,29.848,29.848,0,0,1-4.687,6.372L11.5-5.688H26.782Z" transform="translate(630.023 2048)" fill="#20849e"/></g></svg>