<svg xmlns="http://www.w3.org/2000/svg" width="50.001" height="53.334" viewBox="0 0 50.001 53.334"><g transform="translate(-2)"><g transform="translate(2 0)"><path d="M56.667,13.333A.833.833,0,0,0,57.5,12.5V6.667h.833a.833.833,0,0,0,.833-.833v-5A.833.833,0,0,0,58.333,0h-10a.833.833,0,1,0,0,1.667h5.833V5H50.833a.833.833,0,0,0-.75.461L48.652,8.333H46.667a.833.833,0,0,0,0,1.667h1.667v3.333h-2.5a.833.833,0,1,0,0,1.667h2.5v8.333a.833.833,0,0,0,.343.674l7.794,5.667A2.51,2.51,0,0,1,57.5,31.7V50.834a.833.833,0,0,1-.833.833H48.042a.833.833,0,1,0,0,1.667h8.625a2.5,2.5,0,0,0,2.5-2.5V31.7a4.178,4.178,0,0,0-1.717-3.37L50,22.909V9.363l1.348-2.7H52.5v2.5a4.172,4.172,0,0,0,4.167,4.167Zm-.833-1.809a2.505,2.505,0,0,1-1.667-2.358v-2.5h1.667ZM57.5,5H55.833V1.667H57.5Z" transform="translate(-9.166 0)" fill="#c5a07a"/><path d="M16.167,23.334V9.167a.833.833,0,0,0-.833-.833h-10V8a6.338,6.338,0,0,1,6.338-6.338h6.163a.833.833,0,1,0,0-1.667H11.671a8,8,0,0,0-8,8V9.167A.833.833,0,0,0,4.5,10H7.833v4.018L2.257,29.155A4.167,4.167,0,0,0,2,30.6V50.834a2.5,2.5,0,0,0,2.5,2.5h9.167a.833.833,0,0,0,0-1.667H4.5a.833.833,0,0,1-.833-.833V30.6a2.483,2.483,0,0,1,.154-.864L9.25,15H14.5v8.333a.833.833,0,1,0,1.667,0Zm-6.667-10V10h5v3.333Z" transform="translate(-2 0)" fill="#c5a07a"/><path d="M13.783,39.736a.833.833,0,1,0-.232-1.65C9.816,38.611,7,42.162,7,46.346s2.816,7.735,6.551,8.26a.792.792,0,0,0,.117.008.833.833,0,0,0,.115-1.658c-2.917-.411-5.116-3.253-5.116-6.61S10.866,40.147,13.783,39.736Z" transform="translate(-2.833 -6.345)" fill="#c5a07a"/><path d="M39.617,28.328l-7.45-5.418V9.363l1.348-2.7h1.152v2.5a4.172,4.172,0,0,0,4.167,4.167.833.833,0,0,0,.833-.833V6.667H40.5a.833.833,0,0,0,.833-.833v-5A.833.833,0,0,0,40.5,0H27.671a8,8,0,0,0-8,8V9.167A.833.833,0,0,0,20.5,10h3.333v4.018L18.257,29.155A4.167,4.167,0,0,0,18,30.6V50.834a2.5,2.5,0,0,0,2.5,2.5H38.834a2.5,2.5,0,0,0,2.5-2.5V31.7a4.178,4.178,0,0,0-1.717-3.37ZM38,11.524a2.505,2.505,0,0,1-1.667-2.358v-2.5H38ZM39.667,5H38V1.667h1.667ZM21.333,8a6.338,6.338,0,0,1,6.338-6.338h8.663V5H33a.833.833,0,0,0-.75.461L30.818,8.333H21.333ZM30.5,10v3.333h-5V10Zm9.167,40.834a.833.833,0,0,1-.833.833H20.5a.833.833,0,0,1-.833-.833V30.6a2.483,2.483,0,0,1,.154-.864L25.25,15H30.5v8.333a.833.833,0,0,0,.343.674l7.794,5.667A2.51,2.51,0,0,1,39.667,31.7Z" transform="translate(-4.667 0)" fill="#c5a07a"/><path d="M30.5,38c-4.135,0-7.5,3.738-7.5,8.333s3.365,8.333,7.5,8.333S38,50.928,38,46.333,34.636,38,30.5,38Zm0,15c-3.217,0-5.833-2.991-5.833-6.667s2.617-6.667,5.833-6.667,5.833,2.991,5.833,6.667S33.716,53,30.5,53Z" transform="translate(-5.5 -6.333)" fill="#c5a07a"/><path d="M48.717,52.957a.833.833,0,0,0,.117,1.658.813.813,0,0,0,.118-.008c3.733-.525,6.549-4.076,6.549-8.26s-2.817-7.735-6.55-8.26a.833.833,0,1,0-.233,1.65c2.917.411,5.117,3.25,5.117,6.61S51.633,52.546,48.717,52.957Z" transform="translate(-9.666 -6.346)" fill="#c5a07a"/><path d="M39.918,18.367,37.6,24.652a.833.833,0,1,0,1.564.576l2.316-6.285a.833.833,0,1,0-1.564-.576Z" transform="translate(-7.925 -2.97)" fill="#c5a07a"/></g></g></svg>