<svg xmlns="http://www.w3.org/2000/svg" width="124" height="124" viewBox="0 0 124 124"><g transform="translate(-1144.863 -7509.989)"><circle cx="62" cy="62" r="62" transform="translate(1144.863 7509.989)" fill="#b8dcf3"/><path d="M53.62,62H60.8a1,1,0,0,0,1-1V3a1,1,0,0,0-1-1H3.12a1,1,0,0,0-1,1V61a1,1,0,0,0,1,1H10.3a1,1,0,0,0,1-1V50.44H52.62V61A1,1,0,0,0,53.62,62ZM22.087,28.29V22.032h3.394V28.29Zm-5.394,0V19.581h3.394V28.29Zm-5.394,0V16.226h3.394V28.29ZM27.48,25.161h3.394V28.29H27.48Zm4.394-2H27.48V21.032a1,1,0,0,0-1-1H22.086V18.58a1,1,0,0,0-1-1H16.692V15.225a1,1,0,0,0-1-1H11.3V11.18h41.32V28.29H32.872V24.161a1,1,0,0,0-1-1ZM59.8,60H54.62V4H59.8ZM52.62,9.18H11.3V4H52.62ZM9.3,60H4.12V4H9.3Zm2-17.74V30.29H52.62v4.086H48.226a1,1,0,0,0-1,1V37.73H42.832a1,1,0,0,0-1,1v1.452H37.438a1,1,0,0,0-1,1v2.129H32.044a1,1,0,0,0-1,1v4.128H11.3v-6.18Zm21.746,3.052H36.44V48.44H33.046Zm5.394-1V42.183h3.394v6.258H38.44V44.313Zm5.394-3.129V39.731h3.394V48.44H43.834V41.182Zm5.394,7.258V36.377h3.394V48.441Z" transform="translate(1174.903 7539.989)" fill="#20849e"/></g></svg>