<svg xmlns="http://www.w3.org/2000/svg" width="124" height="124" viewBox="0 0 124 124"><g transform="translate(-353.023 -8133)"><circle cx="62" cy="62" r="62" transform="translate(353.023 8133)" fill="#b8dcf3"/><g transform="translate(376.462 8156.438)"><path d="M118.061,126.341l.725-4.641a19.574,19.574,0,0,0,6.647-3.842l4.386,1.694a2.519,2.519,0,0,0,3.1-1.1l3-5.19a2.519,2.519,0,0,0-.6-3.237l-3.658-2.949a19.593,19.593,0,0,0,0-7.679l3.658-2.949a2.519,2.519,0,0,0,.6-3.237l-3-5.19a2.519,2.519,0,0,0-3.1-1.1l-4.386,1.694a19.573,19.573,0,0,0-6.647-3.842l-.725-4.641A2.519,2.519,0,0,0,115.56,78h-5.993a2.519,2.519,0,0,0-2.5,2.141l-.725,4.641a19.571,19.571,0,0,0-6.647,3.842L95.307,86.93a2.519,2.519,0,0,0-3.105,1.1l-3,5.19a2.519,2.519,0,0,0,.6,3.237L93.467,99.4a19.592,19.592,0,0,0,0,7.679L89.81,110.03a2.519,2.519,0,0,0-.6,3.237l3,5.19a2.519,2.519,0,0,0,3.1,1.1l4.386-1.694a19.573,19.573,0,0,0,6.647,3.842l.725,4.641a2.519,2.519,0,0,0,2.5,2.141h5.993a2.519,2.519,0,0,0,2.5-2.141Zm-8.754-.35-.834-5.335a1.134,1.134,0,0,0-.8-.913,17.264,17.264,0,0,1-6.954-4.019,1.134,1.134,0,0,0-1.19-.235l-5.041,1.947a.262.262,0,0,1-.323-.114l-3-5.19a.262.262,0,0,1,.063-.336l4.2-3.39a1.134,1.134,0,0,0,.391-1.147,17.317,17.317,0,0,1,0-8.036,1.134,1.134,0,0,0-.391-1.147l-4.2-3.39a.261.261,0,0,1-.063-.336l3-5.19a.262.262,0,0,1,.323-.114l5.041,1.947a1.134,1.134,0,0,0,1.19-.235,17.264,17.264,0,0,1,6.954-4.019,1.135,1.135,0,0,0,.8-.913l.834-5.335a.262.262,0,0,1,.26-.222h5.993a.262.262,0,0,1,.26.222l.834,5.335a1.134,1.134,0,0,0,.8.913,17.268,17.268,0,0,1,6.954,4.019,1.135,1.135,0,0,0,1.19.235l5.041-1.947a.261.261,0,0,1,.322.114l3,5.19a.262.262,0,0,1-.063.336l-4.2,3.39a1.134,1.134,0,0,0-.391,1.147,17.316,17.316,0,0,1,0,8.036,1.134,1.134,0,0,0,.391,1.147l4.2,3.39a.261.261,0,0,1,.063.336l-3,5.19a.262.262,0,0,1-.323.114l-5.041-1.947a1.134,1.134,0,0,0-1.19.235,17.268,17.268,0,0,1-6.954,4.019,1.135,1.135,0,0,0-.8.913l-.834,5.335a.262.262,0,0,1-.26.222h-5.993a.262.262,0,0,1-.26-.222Z" transform="translate(-74.064 -64.74)" fill="#20849e"/><path d="M204.189,200.219v-12.57a3.975,3.975,0,0,0-3.97-3.97h-12.57a3.975,3.975,0,0,0-3.97,3.97v12.57a3.975,3.975,0,0,0,3.97,3.97h12.57A3.975,3.975,0,0,0,204.189,200.219Zm-11.957-14.271h3.4v3.466l-.811-.338a2.331,2.331,0,0,0-1.782,0l-.811.338v-3.466Zm-6.285,14.271v-12.57a1.7,1.7,0,0,1,1.7-1.7h2.314v4.281a1.725,1.725,0,0,0,2.389,1.593l1.564-.651a.048.048,0,0,1,.036,0l1.564.651a1.725,1.725,0,0,0,2.389-1.593v-4.281h2.314a1.7,1.7,0,0,1,1.7,1.7v12.57a1.7,1.7,0,0,1-1.7,1.7h-12.57a1.7,1.7,0,0,1-1.7-1.7Z" transform="translate(-155.434 -155.433)" fill="#20849e"/><path d="M17.849,23.074c.007.026.014.053.021.076A3.419,3.419,0,0,0,21.144,25.6a3.371,3.371,0,0,0,.911-.126,3.41,3.41,0,0,0,2.114-1.731A29.191,29.191,0,0,1,47.342,9.361a3.4,3.4,0,1,0-.479-6.79A35.951,35.951,0,0,0,22.582,14.437l-.649-2.422a3.4,3.4,0,0,0-6.575,1.762l2.491,9.3Zm.5-11.274a1.135,1.135,0,0,1,1.39.8l1.211,4.519a1.135,1.135,0,0,0,1.984.412,33.7,33.7,0,0,1,24.086-12.7,1.141,1.141,0,0,1,.866.305,1.119,1.119,0,0,1,.359.826A1.141,1.141,0,0,1,47.184,7.1,31.46,31.46,0,0,0,22.192,22.624q-.02.035-.038.071a1.122,1.122,0,0,1-.712.591,1.139,1.139,0,0,1-1.4-.777l-2.5-9.32a1.136,1.136,0,0,1,.8-1.389Z" transform="translate(-10.883)" fill="#20849e"/><path d="M23.737,274.347A29.192,29.192,0,0,1,9.359,251.174a3.4,3.4,0,1,0-6.79.479,35.95,35.95,0,0,0,11.866,24.282l-2.422.649a3.4,3.4,0,1,0,1.762,6.575l9.3-2.491.075-.021a3.4,3.4,0,0,0,.59-6.3Zm-1.231,4.122-9.319,2.5a1.134,1.134,0,0,1-.587-2.192l4.519-1.211a1.134,1.134,0,0,0,.412-1.984,33.7,33.7,0,0,1-12.7-24.086,1.14,1.14,0,0,1,.305-.866,1.119,1.119,0,0,1,.826-.359A1.141,1.141,0,0,1,7.1,251.332a31.46,31.46,0,0,0,15.527,24.992q.035.02.071.038a1.122,1.122,0,0,1,.591.711,1.139,1.139,0,0,1-.778,1.4Z" transform="translate(0 -210.634)" fill="#20849e"/><path d="M280.667,349.527c-.007-.026-.014-.053-.021-.076a3.4,3.4,0,0,0-6.3-.59,29.191,29.191,0,0,1-23.174,14.379,3.4,3.4,0,0,0,.242,6.8q.118,0,.237-.008a35.951,35.951,0,0,0,24.282-11.866l.649,2.422a3.4,3.4,0,0,0,6.575-1.762l-2.491-9.3Zm-.5,11.274a1.137,1.137,0,0,1-1.39-.8l-1.211-4.519a1.135,1.135,0,0,0-1.984-.412,33.7,33.7,0,0,1-24.086,12.7,1.14,1.14,0,0,1-.866-.305,1.119,1.119,0,0,1-.359-.826,1.141,1.141,0,0,1,1.063-1.131,31.46,31.46,0,0,0,24.992-15.527q.02-.035.038-.071a1.133,1.133,0,0,1,1.015-.633,1.141,1.141,0,0,1,1.092.818l2.5,9.32a1.136,1.136,0,0,1-.8,1.389Z" transform="translate(-210.635 -295.599)" fill="#20849e"/><path d="M370.032,46.864a35.95,35.95,0,0,0-11.866-24.282l2.422-.649a3.4,3.4,0,0,0-1.762-6.575l-9.3,2.491-.075.021a3.4,3.4,0,0,0-.59,6.3,29.192,29.192,0,0,1,14.379,23.173,3.4,3.4,0,1,0,6.79-.479Zm-2.569,1.024a1.118,1.118,0,0,1-.826.359,1.141,1.141,0,0,1-1.131-1.063,31.46,31.46,0,0,0-15.527-24.992q-.035-.02-.071-.038a1.122,1.122,0,0,1-.591-.711,1.14,1.14,0,0,1,.778-1.4l9.319-2.5a1.128,1.128,0,0,1,.861.113A1.134,1.134,0,0,1,360,19.741l-4.519,1.211a1.134,1.134,0,0,0-.412,1.984,33.7,33.7,0,0,1,12.7,24.086,1.14,1.14,0,0,1-.305.866Z" transform="translate(-295.602 -10.881)" fill="#20849e"/></g></g></svg>