<svg xmlns="http://www.w3.org/2000/svg" width="50.001" height="53.334" viewBox="0 0 50.001 53.334"><g transform="translate(-2)"><g transform="translate(2)"><path d="M51.167,0h-5a.833.833,0,0,0-.833.833v12.5H8.667V.833A.833.833,0,0,0,7.833,0h-5A.833.833,0,0,0,2,.833V44.167a.833.833,0,0,0,1.667,0V1.667H7v50H3.667V47.5A.833.833,0,1,0,2,47.5v5a.833.833,0,0,0,.833.833h5a.833.833,0,0,0,.833-.833V48.334H45.334V52.5a.833.833,0,0,0,.833.833h5A.833.833,0,0,0,52,52.5V.833A.833.833,0,0,0,51.167,0ZM8.667,34.167h2.5a.833.833,0,0,0,0-1.667h-2.5V30.834H45.334V32.5H14.5a.833.833,0,1,0,0,1.667H45.334v9.167H8.667ZM45.334,15v1.667h-7.5a.833.833,0,0,0,0,1.667h7.5V29.167H8.667V18.334H34.5a.833.833,0,0,0,0-1.667H8.667V15ZM8.667,46.667V45H45.334v1.667Zm41.667,5H47v-50h3.333Z" transform="translate(-2)" fill="#c5a07a"/><path d="M12.833,12.333a.833.833,0,0,0,.833-.833V9.2A2.167,2.167,0,0,1,14.873,7.25a.833.833,0,0,0,.461-.75V5.667h3.333V6.5a.833.833,0,0,0,.461.746A2.167,2.167,0,0,1,20.333,9.2v2.3A.833.833,0,1,0,22,11.5V9.2a3.825,3.825,0,0,0-1.667-3.171V4.833A.833.833,0,0,0,19.5,4h-5a.833.833,0,0,0-.833.833V6.026A3.825,3.825,0,0,0,12,9.2v2.3A.833.833,0,0,0,12.833,12.333Z" transform="translate(-3.667 -0.667)" fill="#c5a07a"/><path d="M26.833,12.333a.833.833,0,0,0,.833-.833V9.2A2.167,2.167,0,0,1,28.873,7.25a.833.833,0,0,0,.461-.75V5.667h3.333V6.5a.833.833,0,0,0,.461.746A2.167,2.167,0,0,1,34.333,9.2v2.3A.833.833,0,1,0,36,11.5V9.2a3.825,3.825,0,0,0-1.667-3.171V4.833A.833.833,0,0,0,33.5,4h-5a.833.833,0,0,0-.833.833V6.026A3.825,3.825,0,0,0,26,9.2v2.3A.833.833,0,0,0,26.833,12.333Z" transform="translate(-6 -0.667)" fill="#c5a07a"/><path d="M40.833,12.333a.833.833,0,0,0,.833-.833V9.2A2.167,2.167,0,0,1,42.873,7.25a.833.833,0,0,0,.461-.75V5.667h3.333V6.5a.833.833,0,0,0,.461.746A2.167,2.167,0,0,1,48.333,9.2v2.3A.833.833,0,1,0,50,11.5V9.2a3.825,3.825,0,0,0-1.667-3.171V4.833A.833.833,0,0,0,47.5,4h-5a.833.833,0,0,0-.833.833V6.026A3.825,3.825,0,0,0,40,9.2v2.3A.833.833,0,0,0,40.833,12.333Z" transform="translate(-8.333 -0.667)" fill="#c5a07a"/><path d="M18.833,25.833A.833.833,0,0,0,18,25H14.667a.833.833,0,0,0-.833.833v2.16A3.32,3.32,0,0,0,13,30.185v.648a.833.833,0,0,0,1.667,0v-.648a1.643,1.643,0,0,1,.558-1.233.833.833,0,0,0,.276-.619V26.667h1.667v1.667a.833.833,0,0,0,.276.619A1.643,1.643,0,0,1,18,30.185v.648a.833.833,0,0,0,1.667,0v-.648a3.32,3.32,0,0,0-.833-2.192Z" transform="translate(-3.833 -4.166)" fill="#c5a07a"/><path d="M28.833,25.833A.833.833,0,0,0,28,25H24.667a.833.833,0,0,0-.833.833v2.16A3.32,3.32,0,0,0,23,30.185v.648a.833.833,0,0,0,1.667,0v-.648a1.643,1.643,0,0,1,.558-1.233.833.833,0,0,0,.276-.619V26.667h1.667v1.667a.833.833,0,0,0,.276.619A1.643,1.643,0,0,1,28,30.185v.648a.833.833,0,0,0,1.667,0v-.648a3.32,3.32,0,0,0-.833-2.192Z" transform="translate(-5.5 -4.166)" fill="#c5a07a"/><path d="M38.833,25.833A.833.833,0,0,0,38,25H34.667a.833.833,0,0,0-.833.833v2.16A3.32,3.32,0,0,0,33,30.185v.648a.833.833,0,0,0,1.667,0v-.648a1.643,1.643,0,0,1,.558-1.233.833.833,0,0,0,.276-.619V26.667h1.667v1.667a.833.833,0,0,0,.276.619A1.643,1.643,0,0,1,38,30.185v.648a.833.833,0,0,0,1.667,0v-.648a3.32,3.32,0,0,0-.833-2.192Z" transform="translate(-7.166 -4.166)" fill="#c5a07a"/><path d="M43.833,31.667a.833.833,0,0,0,.833-.833v-.648a1.643,1.643,0,0,1,.558-1.233.833.833,0,0,0,.276-.619V26.667h1.667v1.667a.833.833,0,0,0,.276.619A1.643,1.643,0,0,1,48,30.185v.648a.833.833,0,1,0,1.667,0v-.648a3.32,3.32,0,0,0-.833-2.192v-2.16A.833.833,0,0,0,48,25H44.667a.833.833,0,0,0-.833.833v2.16A3.32,3.32,0,0,0,43,30.185v.648A.833.833,0,0,0,43.833,31.667Z" transform="translate(-8.833 -4.166)" fill="#c5a07a"/><path d="M19.5,44H12.833a.833.833,0,0,0-.833.833v3.333a.833.833,0,0,0,1.667,0v-2.5h5v2.5a.833.833,0,0,0,1.667,0V44.833A.833.833,0,0,0,19.5,44Z" transform="translate(-3.667 -7.333)" fill="#c5a07a"/><path d="M31.5,44H24.833a.833.833,0,0,0-.833.833v3.333a.833.833,0,1,0,1.667,0v-2.5h5v2.5a.833.833,0,1,0,1.667,0V44.833A.833.833,0,0,0,31.5,44Z" transform="translate(-5.666 -7.333)" fill="#c5a07a"/><path d="M48.5,44H36.833a.833.833,0,0,0-.833.833v3.333a.833.833,0,1,0,1.667,0v-2.5h10v2.5a.833.833,0,0,0,1.667,0V44.833A.833.833,0,0,0,48.5,44Z" transform="translate(-7.666 -7.333)" fill="#c5a07a"/></g></g></svg>