<svg xmlns="http://www.w3.org/2000/svg" width="124" height="124" viewBox="0 0 124 124"><g transform="translate(-894.675 -1968.553)"><path d="M62,0A62,62,0,1,1,0,62,62,62,0,0,1,62,0Z" transform="translate(894.675 1968.553)" fill="#b8dcf3"/><path d="M9.595-20.9h3.76a5.3,5.3,0,0,0,3.979-1.343,4.92,4.92,0,0,0,1.294-3.564,4.351,4.351,0,0,0-1.282-3.345,4.967,4.967,0,0,0-3.528-1.2,5.207,5.207,0,0,0-3.394,1.111,3.552,3.552,0,0,0-1.367,2.893H2a8.677,8.677,0,0,1,1.5-4.993A10.005,10.005,0,0,1,7.7-34.79a14.015,14.015,0,0,1,5.945-1.245q5.64,0,8.838,2.7a9.2,9.2,0,0,1,3.2,7.434,7.48,7.48,0,0,1-1.489,4.492,9.676,9.676,0,0,1-3.906,3.149,8.832,8.832,0,0,1,4.48,3.223,8.742,8.742,0,0,1,1.477,5.078,9.357,9.357,0,0,1-3.455,7.593A13.89,13.89,0,0,1,13.647.488a13.17,13.17,0,0,1-8.7-2.808A9.169,9.169,0,0,1,1.563-9.741H8.618a4.088,4.088,0,0,0,1.5,3.271,5.533,5.533,0,0,0,3.7,1.27,5.559,5.559,0,0,0,3.943-1.331,4.593,4.593,0,0,0,1.428-3.528q0-5.322-5.859-5.322H9.595Z" transform="translate(942.023 2048)" fill="#20849e"/></g></svg>