<svg xmlns="http://www.w3.org/2000/svg" xmlns:xlink="http://www.w3.org/1999/xlink" width="102" height="102" viewBox="0 0 102 102"><defs><filter id="a" x="0" y="0" width="102" height="102" filterUnits="userSpaceOnUse"><feOffset dy="3" input="SourceAlpha"/><feGaussianBlur stdDeviation="3" result="b"/><feFlood flood-opacity="0.161"/><feComposite operator="in" in2="b"/><feComposite in="SourceGraphic"/></filter></defs><g transform="translate(-488.023 -2577.662)"><g transform="translate(497.023 2583.662)"><g transform="matrix(1, 0, 0, 1, -9, -6)" filter="url(#a)"><circle cx="42" cy="42" r="42" transform="translate(9 6)" fill="#e3f1fa"/></g></g><g transform="translate(509.691 2595.169)"><path d="M48.987,29.933a2.683,2.683,0,0,0-2.68,2.68v.893h-.893v-.893a2.683,2.683,0,0,0-2.68-2.68H22.022a2.676,2.676,0,0,0-2.516-1.787H13.253a2.65,2.65,0,0,0-.893.164V22.787A1.788,1.788,0,0,0,10.573,21H8.787A1.788,1.788,0,0,0,7,22.787V51.373A1.788,1.788,0,0,0,8.787,53.16h1.787a1.788,1.788,0,0,0,1.787-1.787V46.907H46.307v4.467a1.788,1.788,0,0,0,1.787,1.787H49.88a1.788,1.788,0,0,0,1.787-1.787V32.613A2.683,2.683,0,0,0,48.987,29.933Zm-5.36,2.68v.893H22.187V31.72H42.733A.9.9,0,0,1,43.627,32.613Zm-3.943,2.68L34.17,40.807a1.79,1.79,0,0,1-2.526,0L26.13,35.293Zm-26.43-5.36h6.253a.9.9,0,0,1,.893.893v2.68H12.36v-2.68A.9.9,0,0,1,13.253,29.933ZM8.787,51.373V22.787h1.787V46.013s0,0,0,.005v5.355ZM12.36,45.12V35.293H23.6L30.38,42.07a3.576,3.576,0,0,0,5.053,0l6.777-6.777h4.1V45.12Zm35.733,6.253V32.613a.893.893,0,0,1,1.787,0v18.76Z" transform="translate(0 -1.173)" fill="#7d8c48"/><path d="M43.36,21.613a.893.893,0,1,0,1.787,0,4.472,4.472,0,0,1,4.467-4.467.893.893,0,1,0,0-1.787,4.472,4.472,0,0,1-4.467-4.467.893.893,0,1,0-1.787,0,4.472,4.472,0,0,1-4.467,4.467.893.893,0,1,0,0,1.787A4.472,4.472,0,0,1,43.36,21.613Zm.893-7.516a6.286,6.286,0,0,0,2.156,2.156,6.286,6.286,0,0,0-2.156,2.156A6.286,6.286,0,0,0,42.1,16.253,6.286,6.286,0,0,0,44.253,14.1Z" transform="translate(-3.307)" fill="#7d8c48"/><path d="M24.36,21.613a.893.893,0,1,0,1.787,0,4.472,4.472,0,0,1,4.467-4.467.893.893,0,0,0,0-1.787,4.472,4.472,0,0,1-4.467-4.467.893.893,0,1,0-1.787,0,4.472,4.472,0,0,1-4.467,4.467.893.893,0,0,0,0,1.787A4.472,4.472,0,0,1,24.36,21.613Zm.893-7.516a6.286,6.286,0,0,0,2.156,2.156,6.286,6.286,0,0,0-2.156,2.156A6.286,6.286,0,0,0,23.1,16.253,6.286,6.286,0,0,0,25.253,14.1Z" transform="translate(-1.28)" fill="#7d8c48"/></g></g></svg>