<svg xmlns="http://www.w3.org/2000/svg" width="87.351" height="87.351" viewBox="0 0 87.351 87.351"><g transform="translate(-601 -1437.877)"><circle cx="43.675" cy="43.675" r="43.675" transform="translate(601 1437.877)" fill="#ffe6d2"/><path d="M23.6,44.211a.784.784,0,0,1-.979,1.224,24.684,24.684,0,0,0-10.872-5.24.786.786,0,0,1,.274-1.548A26.276,26.276,0,0,1,23.6,44.211Zm27.357-9V64.192a1.565,1.565,0,0,1-1.616,1.5H30.865A4.386,4.386,0,0,1,29,65.279l-3.027-1.44c-1.2.5-3.516,1.959-4.878,1.851H2.616A1.558,1.558,0,0,1,1,64.192V35.209a1.565,1.565,0,0,1,1.616-1.5H4.34v-2.88a.776.776,0,0,1,.578-.754c.793-.215,1.626-.382,2.459-.529V25.62a.787.787,0,0,1,.754-.784c5.818-.264,12.244,2.576,17.748,7.816,4.153-6.925,9-11.744,13.419-13.282a.773.773,0,0,1,.715.1.785.785,0,0,1,.333.637v4.946a17.9,17.9,0,0,1,3.595-.215.787.787,0,0,1,.754.784v3.947a23.911,23.911,0,0,1,2.4.519.785.785,0,0,1,.578.754v2.88h1.675A1.548,1.548,0,0,1,50.954,35.209ZM5.907,58.3a27.166,27.166,0,0,1,14.741.891A21.718,21.718,0,0,0,8.973,55.132c-.666.01-1.587.147-1.616-.774.01-7.718,0-15.5.01-23.224-.49.088-.979.2-1.459.313Zm0,2.968H20.864l.372-.176A25.609,25.609,0,0,0,5.9,59.922v1.342Zm18.767,1.45c-.509-.294-1.028-.558-1.557-.8.029.02-1.695.823-1.734.842a.835.835,0,0,1-.343.078H5.124a.786.786,0,0,1-.784-.784V35.287H2.577V64.114c.039.01,18.483,0,18.532,0,.911.078,2.713-1.058,3.565-1.4Zm.519-28.542c-5.044-4.956-10.912-7.758-16.25-7.787-.01,9.031,0,18.16-.01,27.171,5.3-.078,11.754,2.987,16.309,7.238-.049-.176.078-26.466-.049-26.623ZM43.863,55.151c-4.457-.186-8.776,1.557-12.42,4.006A27.094,27.094,0,0,1,46.086,58.3V31.448c-.47-.118-.94-.215-1.41-.3,0,7.62.01,15.623.01,23.214a.791.791,0,0,1-.823.793ZM31.9,60.666c-.392.127-.784.274-1.166.431l.353.167H46.047V59.912a25.393,25.393,0,0,0-14.144.754ZM29.66,58.482a23.766,23.766,0,0,1,13.448-4.927c0-8.463-.01-18.63-.01-27.171a15.776,15.776,0,0,0-2.772.255c.01,5.211,0,16.847.01,22.215a.793.793,0,0,1-.529.744C36.614,50.665,32.843,54.015,29.66,58.482Zm-2.85,1.4c2.968-4.839,8.061-10.2,11.96-11.578,0-7.542-.01-19.57-.01-27.034-3.918,1.841-8.189,6.406-11.9,12.773a.973.973,0,0,1-.049.294Zm22.567-24.6H47.663c.01,2.125,0,26.26-.049,27.543H30.737l-1.9-.9q-.779.367-1.528.793c.813.323,2.635,1.459,3.546,1.391.02,0,18.522.01,18.522,0ZM12.009,32.045a.786.786,0,0,0-.274,1.548,24.578,24.578,0,0,1,10.872,5.24.784.784,0,0,0,.979-1.224A25.967,25.967,0,0,0,12.009,32.045Zm0,13.977a.786.786,0,0,0-.274,1.548,24.578,24.578,0,0,1,10.872,5.24.784.784,0,0,0,.979-1.224A25.967,25.967,0,0,0,12.009,46.023Z" transform="translate(618.698 1439.042)" fill="#7d8c48"/></g></svg>