<svg xmlns="http://www.w3.org/2000/svg" width="87.351" height="87.351" viewBox="0 0 87.351 87.351"><g transform="translate(-909.649 -1437.877)"><circle cx="43.675" cy="43.675" r="43.675" transform="translate(909.649 1437.877)" fill="#ffe6d2"/><g transform="translate(885.129 1457.996)"><g transform="translate(49.164)"><g transform="translate(0)"><path d="M87.148,39.283,70.029,1.167A1.942,1.942,0,0,0,68.245,0h0a1.942,1.942,0,0,0-1.784,1.164L49.244,39.281a.906.906,0,0,0,.241,1.065,29.723,29.723,0,0,0,5.356,3.392,30.261,30.261,0,0,0,13.4,3.373A29.938,29.938,0,0,0,81.6,43.737a29.118,29.118,0,0,0,5.307-3.395A.906.906,0,0,0,87.148,39.283ZM53.689,33.841c.877.485,1.777.934,2.687,1.338a.906.906,0,1,0,.736-1.656c-.907-.4-1.8-.853-2.674-1.34L68.111,1.91a.141.141,0,0,1,.132-.1h0a.141.141,0,0,1,.132.1l14.9,33.18a28.908,28.908,0,0,1-15.032,4.593,29.3,29.3,0,0,1-15.117-4.6ZM68.246,45.3a28.427,28.427,0,0,1-12.54-3.155,30.863,30.863,0,0,1-4.516-2.767l1.188-2.629A31.052,31.052,0,0,0,68.246,41.5a30.664,30.664,0,0,0,15.782-4.737L85.2,39.38C83.339,40.789,76.7,45.3,68.246,45.3Z" transform="translate(-49.164)" fill="#7d8c48"/></g></g><g transform="translate(58.189 34.382)"><g transform="translate(0)"><path d="M148.5,373.724l-.036-.013a.906.906,0,0,0-.6,1.71l.038.013a.906.906,0,1,0,.6-1.71Z" transform="translate(-147.253 -373.66)" fill="#7d8c48"/></g></g><g transform="translate(58.227 26.267)"><g transform="translate(0)"><path d="M151.283,285.466a3.625,3.625,0,1,0,3.625,3.625A3.629,3.629,0,0,0,151.283,285.466Zm0,5.438a1.813,1.813,0,1,1,1.813-1.813A1.815,1.815,0,0,1,151.283,290.9Z" transform="translate(-147.658 -285.466)" fill="#7d8c48"/></g></g><g transform="translate(67.743 17.204)"><g transform="translate(0)"><path d="M254.7,186.973a3.625,3.625,0,1,0,3.625,3.625A3.629,3.629,0,0,0,254.7,186.973Zm0,5.438a1.813,1.813,0,1,1,1.813-1.813A1.815,1.815,0,0,1,254.7,192.411Z" transform="translate(-251.076 -186.973)" fill="#7d8c48"/></g></g><g transform="translate(70.914 29.439)"><g transform="translate(0)"><path d="M288.267,319.938a2.719,2.719,0,1,0,2.719,2.719A2.722,2.722,0,0,0,288.267,319.938Zm0,3.625a.906.906,0,1,1,.906-.906A.907.907,0,0,1,288.267,323.563Z" transform="translate(-285.548 -319.938)" fill="#7d8c48"/></g></g><g transform="translate(66.836 9.682)"><g transform="translate(0)"><path d="M243.244,105.461a.906.906,0,0,0-1.28.056l-.5.544a.906.906,0,1,0,1.336,1.225l.5-.544A.906.906,0,0,0,243.244,105.461Z" transform="translate(-241.227 -105.223)" fill="#7d8c48"/></g></g><g transform="translate(63.936 14.274)"><path d="M212.612,156.157l-1.541-.906a.906.906,0,1,0-.919,1.562l1.541.906a.906.906,0,0,0,.919-1.562Z" transform="translate(-209.706 -155.126)" fill="#7d8c48"/></g><g transform="translate(61.398 20.376)"><g transform="translate(0)"><path d="M186.4,221.991a.906.906,0,0,0-1.19-.476l-2.538,1.088a.906.906,0,1,0,.714,1.666l2.538-1.088A.906.906,0,0,0,186.4,221.991Z" transform="translate(-182.127 -221.442)" fill="#7d8c48"/></g></g><g transform="translate(66.904 25.225)"><g transform="translate(0)"><path d="M245.531,275.851l-2.13-1.541a.906.906,0,0,0-1.062,1.469l2.13,1.541a.906.906,0,0,0,1.062-1.469Z" transform="translate(-241.964 -274.138)" fill="#7d8c48"/></g></g><g transform="translate(74.086 25.157)"><g transform="translate(0)"><path d="M323.975,273.85a.906.906,0,0,0-1.239-.329l-2.266,1.314a.906.906,0,1,0,.909,1.568l2.266-1.314A.906.906,0,0,0,323.975,273.85Z" transform="translate(-320.019 -273.398)" fill="#7d8c48"/></g></g><g transform="translate(65.084 32.701)"><g transform="translate(0)"><path d="M226.393,355.665a.906.906,0,0,0-1.282-.007l-2.658,2.628a.906.906,0,1,0,1.274,1.289l2.658-2.628A.906.906,0,0,0,226.393,355.665Z" transform="translate(-222.184 -355.396)" fill="#7d8c48"/></g></g></g></g></svg>