<svg xmlns="http://www.w3.org/2000/svg" width="57.673" height="57.986" viewBox="0 0 57.673 57.986"><g transform="translate(-8.354 -8.247)"><path d="M24.041,28.824l-.012.008-.2.112,6.5,3.752,19.85-11.461-6.5-3.749ZM51.914,20.6a.71.71,0,0,1,.395.636h0V31.847h.622a.711.711,0,0,1,.711.711v1.384h3.793a.711.711,0,0,1,.712.711V49.908a8.163,8.163,0,1,1-7.61,11.774H35.413a.713.713,0,0,1-.712-.713v-4.6l-3.973,2.294a.715.715,0,0,1-.794,0L19.342,52.546l-.036-.023L8.712,46.405a.705.705,0,0,1-.355-.614h0V21.234a.712.712,0,0,1,.415-.647l10.574-6.1h0L29.976,8.343a.71.71,0,0,1,.717,0l6.639,3.835.015.01.015.008,3.959,2.286c.012.007.023.014.036.022L44,16.028c.029.015.056.03.082.047Zm-1.027,1.868L31.043,33.923V56.839L34.7,54.727V34.654a.712.712,0,0,1,.711-.713H39.8V32.56a.713.713,0,0,1,.712-.713h2.855a.712.712,0,0,1,.712.711v1.384h5.286V32.559a.713.713,0,0,1,.711-.713h.81V22.467ZM29.62,56.839V33.92l-6.493-3.748v5.719h0a.711.711,0,0,1-1.066.615l-6.646-3.837a.712.712,0,0,1-.4-.64v-6.54L9.776,22.466V45.384l10.237,5.911.04.02Zm-19.136-35.6,5.241,3.027,19.56-11.293.009-.005.278-.161L30.332,9.777,20.054,15.711h0Zm26.508-7.612L20.7,23.031l-.01.005-4.249,2.453V31.62l5.267,3.04V28.942a.713.713,0,0,1,.4-.64l16.528-9.54.012-.007,3.622-2.092-1.614-.931c-.014-.007-.027-.015-.04-.022ZM52.31,43.446v2.21h1.968v-2.21ZM49.993,60.26a8.178,8.178,0,0,1,1.344-7.1.711.711,0,0,1-.691-.712V48.814a.713.713,0,0,1,.712-.713H54.99a.712.712,0,0,1,.712.711v1.379a8.23,8.23,0,0,1,1.023-.211V41h-20.6V60.26Zm2.715-8.526a8.172,8.172,0,0,1,1.571-1.006v-1.2h-2.21v2.209ZM62.628,53.3a6.724,6.724,0,0,0-4.767-1.974c-.125,0-.248,0-.371.01h-.018A6.739,6.739,0,1,0,62.628,53.3Zm-5.48.592a.712.712,0,1,1,1.424,0v5.078L61.1,60.43a.709.709,0,1,1-.711,1.228L57.549,60.02a.714.714,0,0,1-.4-.641V53.893ZM39.8,35.365H36.125v4.211h20.6V35.365H53.642v1.383a.71.71,0,0,1-.711.711H50.075a.713.713,0,0,1-.712-.713V35.365H44.078v1.383a.711.711,0,0,1-.712.711H40.511a.713.713,0,0,1-.712-.713V35.365ZM37.86,42.023h3.632a.713.713,0,0,1,.713.711v3.633a.713.713,0,0,1-.713.713H37.86a.712.712,0,0,1-.712-.713V42.734A.711.711,0,0,1,37.86,42.023Zm2.921,1.423H38.57v2.21h2.21ZM37.86,48.1h3.632a.713.713,0,0,1,.713.711v3.634a.712.712,0,0,1-.713.71H37.86a.713.713,0,0,1-.712-.713V48.814a.711.711,0,0,1,.712-.713Zm2.921,1.424H38.57v2.209h2.21ZM37.86,54.18h3.632a.713.713,0,0,1,.713.712v3.633a.713.713,0,0,1-.713.711H37.86a.712.712,0,0,1-.712-.713V54.892A.712.712,0,0,1,37.86,54.18ZM40.781,55.6H38.57v2.209h2.21Zm3.827-13.58h3.633a.712.712,0,0,1,.712.711v3.633a.712.712,0,0,1-.712.713H44.608a.713.713,0,0,1-.712-.713V42.734A.712.712,0,0,1,44.608,42.023Zm2.921,1.423h-2.21v2.21h2.21ZM44.608,48.1h3.633a.712.712,0,0,1,.712.711v3.634a.712.712,0,0,1-.712.71H44.608a.713.713,0,0,1-.712-.713V48.814a.712.712,0,0,1,.712-.713Zm2.921,1.424h-2.21v2.209h2.21ZM44.608,54.18h3.633a.713.713,0,0,1,.712.712v3.633a.712.712,0,0,1-.712.711H44.608a.713.713,0,0,1-.712-.713V54.892a.713.713,0,0,1,.712-.712ZM47.529,55.6h-2.21v2.209h2.21Zm3.828-13.58h3.633a.712.712,0,0,1,.712.711v3.633a.712.712,0,0,1-.712.713H51.357a.713.713,0,0,1-.712-.713V42.734a.711.711,0,0,1,.712-.711ZM41.225,36.037h1.431V33.272H41.225v2.765Zm9.563,0h1.431V33.272H50.788v2.765Z" fill="#c5a07a" fill-rule="evenodd"/></g></svg>