<svg xmlns="http://www.w3.org/2000/svg" width="87.351" height="87.351" viewBox="0 0 87.351 87.351"><g transform="translate(-1225 -1437.877)"><circle cx="43.675" cy="43.675" r="43.675" transform="translate(1225 1437.877)" fill="#ffe6d2"/><g transform="translate(1206.281 1458)"><path d="M81.171,33.086a5.277,5.277,0,0,0-2.614-3.645V27.7a2.068,2.068,0,0,0,1.349-1.322l.46-1.382A2.072,2.072,0,0,0,78.4,22.265h-5.72a.69.69,0,1,0,0,1.38H78.4a.692.692,0,0,1,.656.91l-.46,1.382a.691.691,0,0,1-.656.473H58.8a.691.691,0,0,1-.656-.473l-.46-1.382a.692.692,0,0,1,.656-.91H69.456a.69.69,0,1,0,0-1.38H63.35l.215-1.8A4.939,4.939,0,0,0,59.4,15.047V14.49a2.258,2.258,0,0,0-1.61-2.16V7.746A2.055,2.055,0,0,0,59.1,6.663l1.195-2.432A2.116,2.116,0,0,0,60.276,0H45.187a2.116,2.116,0,0,0-.016,4.232l1.195,2.431a2.055,2.055,0,0,0,1.305,1.083v4.585a2.258,2.258,0,0,0-1.61,2.16v.557A4.94,4.94,0,0,0,41.9,20.466l2.137,17.843a.69.69,0,0,0,.684.608.723.723,0,0,0,.686-.772l-.246-2.054H55.9a5.268,5.268,0,0,0,1.118,1.672l2.754,2.771-.6,4.988a.23.23,0,0,1-.228.2H46.516a.23.23,0,0,1-.228-.2l-.5-4.208a.69.69,0,1,0-1.37.164l.5,4.208a1.611,1.611,0,0,0,1.6,1.419h12.43a1.611,1.611,0,0,0,1.6-1.419l.468-3.9,2.041,2.054-.585,1.754a1.151,1.151,0,0,0,1.092,1.514h9.623a1.151,1.151,0,0,0,1.092-1.514l-.585-1.754,6.035-6.074a5.279,5.279,0,0,0,1.446-4.677Zm-1.357.251a3.838,3.838,0,0,1-.82,3.178H65.27a.69.69,0,1,0,0,1.38H77.649l-1.374,1.383H60.469L59.095,37.9h2.961a.69.69,0,0,0,0-1.38H57.75a4.176,4.176,0,0,1-.727-1.354,3.889,3.889,0,0,1-.093-1.824,3.843,3.843,0,0,1,2.1-2.784H77.712A3.843,3.843,0,0,1,79.814,33.337Zm-7.2,9.626H64.13l-2.289-2.3H74.9Zm-16.247-18c.042.13.446,1.352.492,1.472H44l-.176-1.472Zm20.81,4.214H59.567V27.79h17.61Zm-33.01-1.362h14.02v1.63a5.277,5.277,0,0,0-2.228,2.418H44.652Zm4.884-15.574V7.82h7.36v4.416Zm-2.342-8h2.009a.69.69,0,0,0,0-1.38H45.187a.736.736,0,1,1,0-1.472H60.276a.736.736,0,0,1,0,1.472H51.951a.69.69,0,1,0,0,1.38h6.8l-.9,1.822a.686.686,0,0,1-.619.386H48.224a.686.686,0,0,1-.619-.386Zm1.606,9.384h8.832a.875.875,0,0,1,.874.874V15H47.441V14.49A.875.875,0,0,1,48.315,13.616Zm-4.188,3.94a3.511,3.511,0,0,1,2.624-1.18h11.96A3.55,3.55,0,0,1,62.2,20.3l-.235,1.963H58.342a2.05,2.05,0,0,0-1.681.86,2.1,2.1,0,0,0-.249.454H43.66L43.267,20.3a3.511,3.511,0,0,1,.859-2.746Zm.866,17.155-.176-1.472H55.549a5.273,5.273,0,0,0-.021,1.472ZM63.879,45.726l.461-1.383H72.4l.461,1.383Z" fill="#7d8c48"/></g></g></svg>