<svg xmlns="http://www.w3.org/2000/svg" width="64.543" height="49.884" viewBox="0 0 64.543 49.884"><path d="M77.721,94.548a.977.977,0,0,1-.088,1.379l-7.794,6.86a.978.978,0,0,1-1.378-.086l-3.222-3.637a.978.978,0,1,1,1.464-1.3l2.575,2.908,7.063-6.216a.979.979,0,0,1,1.38.088Zm1.285,9.563.008-.01a9.17,9.17,0,0,0,0-11.538,9.751,9.751,0,0,0-1.34-1.339,9.171,9.171,0,0,0-11.531,0l-.709.639a9.164,9.164,0,0,0,0,12.945l.706.638a9.17,9.17,0,0,0,11.534,0A9.72,9.72,0,0,0,79.006,104.111Zm4.01-5.78a11.109,11.109,0,1,0-3.254,7.856A11.1,11.1,0,0,0,83.016,98.331Zm13.325,21.262-3.2,3.183a.033.033,0,0,1-.025-.009l-8.8-8.8v-.05c.031,0,3.142-3.181,3.2-3.181a.033.033,0,0,1,.025.009l8.8,8.8a.038.038,0,0,1,0,.049ZM82.833,109.258c.111-.111.22-.224.327-.338l1.693,1.692-.664.664L82.5,109.584Q82.666,109.423,82.833,109.258Zm-20.469-1.383a13.5,13.5,0,1,0,0-19.085h0A13.51,13.51,0,0,0,62.364,107.874Zm35.36,10.286-8.8-8.8a1.993,1.993,0,0,0-2.681-.121l-1.829-1.829a15.445,15.445,0,1,0-3.429,3.432l1.827,1.827a1.992,1.992,0,0,0,.122,2.681l8.8,8.8a1.992,1.992,0,0,0,2.816,0l3.173-3.172a1.992,1.992,0,0,0,0-2.815ZM71.058,130.8H54.366V117.413H58.9v2.9a1.848,1.848,0,0,0,1.846,1.846h3.938a1.848,1.848,0,0,0,1.846-1.846v-2.9h4.531V130.8ZM35.719,117.413h4.53v2.9a1.848,1.848,0,0,0,1.846,1.846h3.938a1.848,1.848,0,0,0,1.847-1.846v-2.9h4.53V130.8H35.719Zm4.53-30.693v2.9A1.849,1.849,0,0,0,42.1,91.469h3.938a1.85,1.85,0,0,0,1.847-1.847v-2.9h4.53v13.39H35.719V86.721Zm1.956,0v2.793h3.72V86.721Zm0,15.346h3.72v2.793H42.2Zm-6.486,13.391H52.41V102.067H47.88v2.9a1.848,1.848,0,0,1-1.847,1.846H42.1a1.848,1.848,0,0,1-1.846-1.846v-2.9h-4.53Zm6.486,1.956v2.793h3.72v-2.793Zm18.648,0h3.72v2.793h-3.72Zm11.183-1.956H54.366V85.743a.977.977,0,0,0-.978-.978H34.741a.977.977,0,0,0-.978.978v46.04a.978.978,0,0,0,.978.978H72.036a.978.978,0,0,0,.978-.978V116.435A.978.978,0,0,0,72.036,115.458Z" transform="translate(-33.763 -82.877)" fill="#c5a07a" fill-rule="evenodd"/></svg>