<svg xmlns="http://www.w3.org/2000/svg" xmlns:xlink="http://www.w3.org/1999/xlink" width="102" height="102" viewBox="0 0 102 102"><defs><filter id="a" x="0" y="0" width="102" height="102" filterUnits="userSpaceOnUse"><feOffset dy="3" input="SourceAlpha"/><feGaussianBlur stdDeviation="3" result="b"/><feFlood flood-opacity="0.161"/><feComposite operator="in" in2="b"/><feComposite in="SourceGraphic"/></filter></defs><g transform="translate(-177.972 -2292.226)"><g transform="translate(186.972 2298.226)"><g transform="matrix(1, 0, 0, 1, -9, -6)" filter="url(#a)"><circle cx="42" cy="42" r="42" transform="translate(9 6)" fill="#e3f1fa"/></g></g><g transform="translate(197.356 2310.333)"><path d="M38.253,17a7.253,7.253,0,1,0,7.253,7.253A7.262,7.262,0,0,0,38.253,17Zm0,12.694a5.44,5.44,0,1,1,5.44-5.44A5.446,5.446,0,0,1,38.253,29.694Z" transform="translate(-2.24 -0.933)" fill="#7d8c48"/><path d="M41.276,22.141a.906.906,0,0,0-1.282,0l-1.285,1.285-1.285-1.285a.907.907,0,0,0-1.282,1.282l1.285,1.285-1.285,1.285a.907.907,0,0,0,1.282,1.282l1.285-1.285,1.285,1.285a.907.907,0,1,0,1.282-1.282l-1.285-1.285,1.285-1.285A.906.906,0,0,0,41.276,22.141Z" transform="translate(-2.695 -1.388)" fill="#7d8c48"/><path d="M36.014,7A16.294,16.294,0,0,0,22.726,32.761l-2.012,2.012a2.706,2.706,0,0,0-3.644,3.547c-1.871,1.564-7.381,6.195-9.009,7.824a3.627,3.627,0,0,0,5.129,5.129c1.629-1.629,6.259-7.139,7.823-9.009A2.706,2.706,0,0,0,24.56,38.62l2.012-2.012A16.312,16.312,0,1,0,36.014,7ZM11.907,49.991a1.813,1.813,0,0,1-2.564-2.564c1.551-1.551,7-6.135,8.869-7.7L19.6,41.122c-1.562,1.867-6.146,7.318-7.7,8.869Zm10.848-9.565a.908.908,0,0,1-1.282,0l-2.564-2.564a.907.907,0,0,1,1.282-1.282l2.564,2.564A.908.908,0,0,1,22.755,40.426ZM23.4,37.22l-1.282-1.282,1.755-1.755a16.451,16.451,0,0,0,1.282,1.282Zm12.618.607A14.507,14.507,0,1,1,50.521,23.32,14.523,14.523,0,0,1,36.014,37.827Z" fill="#7d8c48"/><path d="M37.694,11A12.694,12.694,0,1,0,50.387,23.694,12.708,12.708,0,0,0,37.694,11Zm0,23.574a10.88,10.88,0,1,1,10.88-10.88A10.892,10.892,0,0,1,37.694,34.574Z" transform="translate(-1.68 -0.373)" fill="#7d8c48"/></g></g></svg>