<svg xmlns="http://www.w3.org/2000/svg" xmlns:xlink="http://www.w3.org/1999/xlink" width="102" height="102" viewBox="0 0 102 102"><defs><filter id="a" x="0" y="0" width="102" height="102" filterUnits="userSpaceOnUse"><feOffset dy="3" input="SourceAlpha"/><feGaussianBlur stdDeviation="3" result="b"/><feFlood flood-opacity="0.161"/><feComposite operator="in" in2="b"/><feComposite in="SourceGraphic"/></filter></defs><g transform="translate(-488.023 -2291.901)"><g transform="translate(497.023 2297.901)"><g transform="matrix(1, 0, 0, 1, -9, -6)" filter="url(#a)"><circle cx="42" cy="42" r="42" transform="translate(9 6)" fill="#e3f1fa"/></g></g><g transform="translate(486.61 2318)"><g transform="translate(33.365 0)"><path d="M199.962,190.608H186.241a.683.683,0,0,0,0,1.366h13.721a.683.683,0,1,0,0-1.366Z" transform="translate(-172.537 -174.301)" fill="#7d8c48"/><path d="M200.645,222.669a.683.683,0,0,0-.683-.683H186.241a.683.683,0,0,0,0,1.366h13.721A.683.683,0,0,0,200.645,222.669Z" transform="translate(-172.537 -202.994)" fill="#7d8c48"/><path d="M199.527,280.12a.683.683,0,0,0-.683-.683h-12.6a.683.683,0,1,0,0,1.366h12.6A.683.683,0,0,0,199.527,280.12Z" transform="translate(-172.537 -255.53)" fill="#7d8c48"/><path d="M198.241,311.5a.683.683,0,0,0-.683-.683H186.241a.683.683,0,0,0,0,1.366h11.317A.683.683,0,0,0,198.241,311.5Z" transform="translate(-172.537 -284.221)" fill="#7d8c48"/><path d="M186.241,368.264a.683.683,0,0,0,0,1.366H195.2a.683.683,0,0,0,0-1.366Z" transform="translate(-172.537 -336.757)" fill="#7d8c48"/><path d="M193.919,399.64h-7.678a.683.683,0,1,0,0,1.366h7.678a.683.683,0,0,0,0-1.366Z" transform="translate(-172.537 -365.449)" fill="#7d8c48"/><path d="M307.043,173.147a2.726,2.726,0,0,0-3.631,1.28l-10.293,21.495a2.458,2.458,0,0,0-.239.939l-.2,3.826a1.147,1.147,0,0,0,1.91.915l2.367-2.116h3.324a3.071,3.071,0,0,0,3.068-3.068v-9.255l4.972-10.384A2.726,2.726,0,0,0,307.043,173.147Zm-1.174,1.1a1.356,1.356,0,0,1,1.221,1.942l-.545,1.137-2.446-1.171.545-1.137A1.358,1.358,0,0,1,305.869,174.246Zm-.327,5.173-2.446-1.171.413-.862,2.446,1.171Zm-8.45,17.647-2.446-1.171,7.86-16.415,2.446,1.171Zm-3.019,3.166.157-3.022,2.1,1.005Zm7.911-3.815a1.7,1.7,0,0,1-1.7,1.7H298.1l3.88-8.1Z" transform="translate(-270.494 -158.09)" fill="#7d8c48"/><path d="M53.381,40.029H36.433a1.7,1.7,0,0,1-1.7-1.7V9.3a1.72,1.72,0,0,1,.027-.3h5.436a2.164,2.164,0,0,0,2.161-2.161V1.393a1.721,1.721,0,0,1,.3-.027H63.153a1.7,1.7,0,0,1,1.7,1.7V15.632a.683.683,0,1,0,1.366,0V3.068A3.071,3.071,0,0,0,63.153,0H42.66a3.048,3.048,0,0,0-2.169.9L34.263,7.126a3.048,3.048,0,0,0-.9,2.169V38.328A3.071,3.071,0,0,0,36.433,41.4H53.381a.683.683,0,0,0,0-1.366ZM40.99,2.332v4.5a.8.8,0,0,1-.8.8H35.7Z" transform="translate(-33.365 0)" fill="#7d8c48"/><path d="M94.862,179.713a1.627,1.627,0,0,0-1.626-1.626H90.484a1.627,1.627,0,0,0-1.626,1.626v2.753a1.627,1.627,0,0,0,1.626,1.626h2.753a1.627,1.627,0,0,0,1.626-1.626ZM93.5,182.466a.26.26,0,0,1-.259.259H90.484a.26.26,0,0,1-.259-.259v-2.753a.26.26,0,0,1,.259-.259h2.753a.26.26,0,0,1,.259.259Z" transform="translate(-84.11 -162.851)" fill="#7d8c48"/><path d="M94.862,269.645a1.627,1.627,0,0,0-1.626-1.626H90.484a1.627,1.627,0,0,0-1.626,1.626V272.4a1.627,1.627,0,0,0,1.626,1.626h2.753a1.627,1.627,0,0,0,1.626-1.626ZM93.5,272.4a.26.26,0,0,1-.259.259H90.484a.26.26,0,0,1-.259-.259v-2.753a.26.26,0,0,1,.259-.259h2.753a.26.26,0,0,1,.259.259Z" transform="translate(-84.11 -245.089)" fill="#7d8c48"/><path d="M93.237,357.952H90.484a1.627,1.627,0,0,0-1.626,1.626v2.753a1.627,1.627,0,0,0,1.626,1.626h2.753a1.627,1.627,0,0,0,1.626-1.626v-2.753A1.627,1.627,0,0,0,93.237,357.952Zm.259,4.379a.26.26,0,0,1-.259.259H90.484a.26.26,0,0,1-.259-.259v-2.753a.26.26,0,0,1,.259-.259h2.753a.26.26,0,0,1,.259.259Z" transform="translate(-84.11 -327.327)" fill="#7d8c48"/><path d="M223.846,45.158a5.626,5.626,0,0,0,7.5,0,.684.684,0,0,0,.093-.085,5.636,5.636,0,1,0-7.683,0,.674.674,0,0,0,.094.085Zm1.225-.763a2.834,2.834,0,0,1,1.474-1.388,2.44,2.44,0,0,0,2.1,0,2.833,2.833,0,0,1,1.474,1.388,4.262,4.262,0,0,1-5.046,0Zm3.122-2.7,0,0a1.07,1.07,0,1,1,.473-.888A1.062,1.062,0,0,1,228.19,41.7Zm-.6-5.012a4.268,4.268,0,0,1,3.517,6.688,4.131,4.131,0,0,0-1.4-1.357,2.436,2.436,0,1,0-4.234,0,4.132,4.132,0,0,0-1.4,1.357,4.268,4.268,0,0,1,3.517-6.688Z" transform="translate(-205.823 -32.295)" fill="#7d8c48"/></g></g></g></svg>